<svg xmlns="http://www.w3.org/2000/svg" xmlns:xlink="http://www.w3.org/1999/xlink" version="1.1" x="0px" y="0px" viewBox="0 0 550.96 544.81" style="enable-background:new 0 0 550.96 544.81;" xml:space="preserve">
<g id="Layer_1">
</g>
<g id="Layer_2">
	<g>
		<circle style="fill:none;" cx="278.83" cy="272.95" r="268.53"/>
		<path d="M8.62,214.84l-0.11-0.03c0.28-1.17,1.14-3.32,4.74-3.35c3.02-0.02,4.28-0.96,4.49-1.84l0.54-2.23l-6.16-1.49    c-1.06-0.26-1.35,0.01-1.68,1.39l-0.11-0.02l1.23-5.1l0.11,0.03c-0.33,1.38-0.2,1.75,0.86,2.01l12.53,3.02    c1.06,0.26,1.35-0.01,1.68-1.39l0.11,0.03l-1.36,5.63c-0.54,2.23-2.42,4.92-5.24,4.24c-2.01-0.49-3.06-2.75-2.65-5.44    c-0.57,1.19-2.02,2.82-4.65,2.84C11.17,213.15,8.92,213.6,8.62,214.84z M17.85,209.65c-0.44,1.8,1.07,3.96,2.82,4.39    c2.81,0.68,4.41-1.29,4.72-2.57l0.54-2.23l-7.54-1.82L17.85,209.65z" fill="#f1d9d0"/>
		<path d="M7.96,227.06l-1.72-0.32l1.87-9.87l0.11,0.02c-0.26,1.4-0.11,1.76,0.96,1.96l12.66,2.4c1.07,0.2,1.35-0.08,1.61-1.47    l0.11,0.02l-1.81,9.55l-1.71-0.32l0.02-0.11c1.29,0.24,1.65,0.09,1.85-0.98l0.89-4.72l-7.51-1.42l-0.65,3.43    c-0.2,1.07,0.08,1.35,1.47,1.61l-0.02,0.11l-3.54-0.67l0.02-0.11c1.4,0.26,1.76,0.11,1.96-0.96l0.65-3.43l-7.62-1.44l-0.95,5.04    c-0.2,1.07,0.08,1.35,1.37,1.59L7.96,227.06z" fill="#f1d9d0"/>
		<path d="M5.02,234.93l0.8-5.73l0.11,0.02c-0.2,1.41-0.03,1.76,1.06,1.91l12.76,1.78c1.08,0.15,1.34-0.14,1.54-1.55l0.11,0.01    l-0.76,5.41c-0.32,2.27-1.71,4.61-4.23,4.26c-1.73-0.24-3.19-1.65-3.16-4.43c-0.58,2.81-1.82,4.94-4.68,4.54    C6.35,240.85,4.47,238.82,5.02,234.93z M8.8,239.43c3.11,0.44,4.33-2.65,4.52-3.97c0-0.01,0.23-1.65,0.23-1.65l-8.11-1.13    l-0.3,2.16C4.78,237.43,6.58,239.12,8.8,239.43z M13.66,233.82c0,0-0.23,1.64-0.23,1.66c-0.3,2.25,1.26,3.56,3.21,3.83    c2.34,0.33,3.7-1.25,3.88-2.54l0.27-1.95L13.66,233.82z" fill="#f1d9d0"/>
		<path d="M4.81,252.87l-1.74-0.16l0.92-10l0.11,0.01c-0.13,1.41,0.06,1.76,1.14,1.86l12.83,1.18c1.09,0.1,1.33-0.21,1.47-1.62    l0.11,0.01l-0.89,9.67l-1.74-0.16l0.01-0.11c1.3,0.12,1.65-0.07,1.75-1.15l0.44-4.78l-7.61-0.7l-0.32,3.48    c-0.1,1.09,0.21,1.33,1.62,1.47l-0.01,0.11l-3.59-0.33l0.01-0.11c1.41,0.13,1.76-0.06,1.86-1.14l0.32-3.48l-7.72-0.71l-0.47,5.11    c-0.1,1.09,0.21,1.33,1.51,1.46L4.81,252.87z" fill="#f1d9d0"/>
		<path d="M5.91,268.84c-2.04-0.85-3.83-2.63-3.71-5.5c0.18-4.52,3.99-8.03,8.51-7.85c4.52,0.18,8.03,3.99,7.85,8.51    c-0.08,1.97-1.27,3.35-2.44,4.15c-0.05,0.03-0.31,0.2-0.46,0.29c0,0,0,0,0,0c-0.31,0.19-0.42,0.35,0.74,0.39l0,0.11l-3.49-0.14    l0-0.11c1.41,0.06,2.44-0.16,3.27-0.73c1.32-0.92,2.2-2.31,2.27-3.96c0.14-3.55-3.46-6.48-7.82-6.65c-4.36-0.17-8.18,2.45-8.32,6    c-0.09,2.23,1.01,4.23,3.61,5.39L5.91,268.84z" fill="#f1d9d0"/>
		<path d="M3.32,298.35l-0.11,0l-0.23-5.24l0.11,0c0.06,1.32,0.48,1.53,1.21,1.28l3.92-1.5l-0.28-6.25    c-2.42-0.67-5.67-2.18-5.83-5.94c-0.2-4.52,3.3-8.34,7.82-8.54s8.34,3.3,8.54,7.82c0.09,1.97-0.99,3.45-2.09,4.34    c-0.04,0.04-0.29,0.22-0.43,0.32c-0.29,0.21-0.39,0.38,0.77,0.33l0,0.11l-3.49,0.15l-0.01-0.11c1.41-0.06,2.42-0.36,3.2-1.01    c1.24-1.02,2-2.48,1.93-4.14c-0.16-3.55-3.99-6.16-8.35-5.97c-4.36,0.19-7.95,3.13-7.79,6.68c0.15,3.49,3.07,5.11,5.83,5.86    l9.75,2.57c0.4-0.02,0.61-0.46,0.57-1.49l0.11,0l0.14,3.05l-14.08,5.39C3.56,296.44,3.26,296.93,3.32,298.35z M8.32,292.85    l9.45-3.62l-9.72-2.56L8.32,292.85z" fill="#f1d9d0"/>
		<path d="M7.13,322.91l-0.11,0.02l-0.33-2.05c0.23-0.3,0.51-0.67,0.83-1.1c-0.96-0.86-1.67-2.08-1.92-3.59    c-0.49-3.02,0.76-5.87,4-6.39c2.31-0.37,4.26,0.94,5.23,2.83c0.68-0.39,1.39-0.7,2.1-0.91c2.64-0.76,4.49,0.38,4.8,2.32    c0.28,1.72-0.59,3.19-2.53,3.5c-1.8,0.29-3.11-1.17-3.62-2.06l0.72,3.3l-0.38-0.27l-0.24-1.49c-0.09,1.25-0.69,3.26-2.89,3.96    c-1.31,0.42-2.73,0.28-3.96-0.31C8.11,321.6,7.52,322.4,7.13,322.91z M7.66,319.6c1.56-2.04,4.03-5.07,6.88-6.81    c-0.96-1.07-2.58-1.61-4.49-1.3c-4.81,0.77-5.23,5.23-2.89,7.66C7.32,319.32,7.49,319.47,7.66,319.6z M12.73,320    c2.07-0.74,3.03-2.54,2.83-3.77l-0.21-1.27l0.11-0.02c0.38,1.34,2.04,1.66,3.44,1.44c1.46-0.23,2.91-1.13,2.72-2.32    c-0.26-1.62-2.18-1.86-4.28-1.19c-2.73,0.87-6.02,4.64-8.23,7.45C10.28,320.61,11.55,320.42,12.73,320z" fill="#f1d9d0"/>
		<path d="M20.17,345.49c-4.38,1.12-8.43-1.23-9.64-5.99l-1.3-5.08l0.11-0.03c0.35,1.38,0.64,1.64,1.7,1.37l12.48-3.19    c1.06-0.27,1.19-0.64,0.84-2.02l0.11-0.03l1.3,5.08C26.97,340.37,24.55,344.37,20.17,345.49z M19.71,343.69    c4.23-1.08,6.86-4.46,5.94-8.05l-0.43-1.69l-15.02,3.84l0.43,1.69C11.55,343.07,15.48,344.77,19.71,343.69z" fill="#f1d9d0"/>
		<path d="M17.28,362.34l-0.1,0.03l-1.56-5l0.1-0.03c0.4,1.26,0.87,1.36,1.49,0.92l3.4-2.46l-1.87-5.96l-4,0    c-1,0-1.28,0.31-0.85,1.67l-0.1,0.03l-1.08-3.44l0.1-0.03c0.43,1.35,0.71,1.67,1.9,1.67l13.96,0.01c0.58,0,0.77-0.45,0.41-1.62    l0.1-0.03l0.91,2.92l-12.22,8.82C17.02,360.43,16.85,360.98,17.28,362.34z M20.7,355.74l8.16-5.89l-10-0.01L20.7,355.74z" fill="#f1d9d0"/>
		<path d="M38.12,373.31l-0.1,0.04c-0.51-1.32-0.83-1.55-1.85-1.16l-13.35,5.12l-0.04-0.1l9.65-16.1l-12.47,4.79    c-1.02,0.39-1.1,0.78-0.6,2.1l-0.1,0.04l-1.29-3.36l0.1-0.04c0.51,1.33,0.83,1.55,1.85,1.16l12.13-4.66c0.92-0.35,1-0.74,0.5-2.06    l0.1-0.04l1.1,2.85l-8.7,14.45l11.09-4.25c1.02-0.39,1.1-0.78,0.6-2.1l0.1-0.04L38.12,373.31z" fill="#f1d9d0"/>
		<path d="M38.77,378.14l-11.82,5.14c-1,0.44-1.07,0.82-0.5,2.12l-0.1,0.04l-2.09-4.81l0.1-0.04c0.57,1.3,0.9,1.52,1.9,1.08    l11.82-5.14c1-0.44,1.07-0.82,0.5-2.12l0.1-0.04l2.09,4.81l-0.1,0.04C40.1,377.92,39.77,377.71,38.77,378.14z" fill="#f1d9d0"/>
		<path d="M32.87,395.28l-1.58,0.75l-4.31-9.07l0.1-0.05c0.61,1.28,0.95,1.48,1.93,1.02l11.64-5.53c0.99-0.47,1.04-0.86,0.43-2.14    l0.1-0.05l4.17,8.78l-1.58,0.75l-0.05-0.1c1.18-0.56,1.39-0.9,0.92-1.89l-2.06-4.34l-6.9,3.28l1.5,3.16    c0.47,0.99,0.86,1.04,2.14,0.43l0.05,0.1l-3.25,1.55l-0.05-0.1c1.28-0.61,1.48-0.95,1.02-1.93l-1.5-3.16l-7,3.33l2.2,4.63    c0.47,0.99,0.86,1.04,2.04,0.48L32.87,395.28z" fill="#f1d9d0"/>
		<path d="M38.77,406.5l-1.54,0.82l-4.86-9.16l0.1-0.05c0.67,1.25,1.01,1.44,1.98,0.93L45.81,393c0.96-0.51,1-0.9,0.34-2.16    l0.1-0.05l2.46,4.63l-0.1,0.05c-0.67-1.25-1.01-1.44-1.98-0.93l-12.53,6.66l2.56,4.82c0.51,0.96,0.81,1.06,2.06,0.39L38.77,406.5z    " fill="#f1d9d0"/>
		<path d="M42.71,418.78L58,409.33l0.2,0.32L42.9,419.1L42.71,418.78z" fill="#f1d9d0"/>
		<path d="M75.04,433.97l-0.1,0.07c-0.96-1.31-1.38-1.46-2.39-0.72l-13.17,9.68l-0.07-0.1l5.74-20.64l-12.27,9.02    c-1,0.74-0.98,1.19-0.02,2.5l-0.1,0.07l-2.44-3.32l0.1-0.07c0.96,1.31,1.38,1.46,2.39,0.72l11.97-8.79    c0.9-0.67,0.88-1.12-0.08-2.42l0.1-0.07l2.07,2.82l-5.04,18.42l10.76-7.91c1.01-0.74,0.99-1.19,0.02-2.5l0.1-0.07L75.04,433.97z" fill="#f1d9d0"/>
		<path d="M78.59,452.07c-2.96,2.5-7.39,2.14-9.89-0.82c-2.51-2.96-2.14-7.39,0.82-9.89c2.96-2.5,7.39-2.14,9.89,0.82    C81.91,445.13,81.54,449.56,78.59,452.07z M77.56,450.85c2.86-2.42,3.75-6.29,1.78-8.62c-1.97-2.33-5.94-2.08-8.79,0.34    c-2.85,2.42-3.75,6.29-1.77,8.62S74.7,453.27,77.56,450.85z" fill="#f1d9d0"/>
		<path d="M92.42,456.95l-0.07,0.06c-0.83-0.89-1.21-1.01-2.11-0.6l-11.81,5.33l-0.06-0.07l5.73-11.81c0.4-0.8,0.31-1.31-0.52-2.2    l0.07-0.06l3.07,3.28l-0.07,0.06c-0.83-0.89-1.2-0.66-1.54,0l-4.96,9.92l10.02-4.52c0.75-0.34,0.89-0.69,0.06-1.58l0.07-0.06    L92.42,456.95z" fill="#f1d9d0"/>
		<path d="M82.52,468.08c0.3-0.31,0.8-0.31,1.11,0c0.31,0.31,0.31,0.8,0,1.11c-0.31,0.31-0.8,0.3-1.11,0    C82.21,468.88,82.21,468.38,82.52,468.08z" fill="#f1d9d0"/>
		<path d="M96.44,481.9L96.36,482l-4.47-3.99l0.08-0.09c1.21,1.08,1.66,1.14,2.49,0.21l8.23-9.21c0.83-0.93,0.72-1.37-0.49-2.45    l0.08-0.09c3.07,1.24,4.46,0.81,4.46,0.81l0.09,0.08l-10.89,12.19C95.12,480.39,95.23,480.82,96.44,481.9z" fill="#f1d9d0"/>
		<path d="M112.39,483.68c-3.24,3.94-7.77,5.56-10.11,3.64c-2.34-1.93-1.61-6.68,1.63-10.62c3.24-3.94,7.77-5.56,10.11-3.64    S115.63,479.75,112.39,483.68z M110.75,482.33c3.2-3.88,4.68-7.95,3.19-9.17c-1.49-1.23-5.19,1-8.39,4.89    c-3.2,3.88-4.68,7.95-3.19,9.17C103.84,488.45,107.55,486.22,110.75,482.33z" fill="#f1d9d0"/>
		<path d="M110.5,492.68c-0.07,0.09-0.16,0.16-0.26,0.21c-0.38,0.19-1.39,0.32-1.82,0.36c-0.23,0.03-0.22-0.2-0.03-0.26    c0.22-0.05,0.53-0.14,0.7-0.26c0.25-0.18,0.13-0.39,0.11-0.66c-0.01-0.1,0.02-0.22,0.1-0.33c0.22-0.29,0.67-0.44,1.06-0.14    C110.76,491.92,110.68,492.44,110.5,492.68z" fill="#f1d9d0"/>
		<path d="M130.73,502.9l-2.22,3.32l-8.4-5.62l0.07-0.1c6.59-6.25,11.77-3.23,14.72-7.64c0.75-1.12,1.49-3.13-0.38-4.38    c-0.85-0.57-2.03-0.78-3.15-0.52c-1.1,0.28-2.05,1.11-2.95,2.45l-0.1-0.07l2.22-3.32l0.1,0.07c-0.9,1.35-0.13,1.02,0.22,0.89    l-0.01,0c1.23-0.44,2.66-0.33,3.73,0.39c1.87,1.25,3.25,3.67,1.58,6.16c-2.76,4.12-8.28,0.5-14.38,4.8l6.47,4.33    c1.04,0.69,1.45,0.52,2.35-0.83L130.73,502.9z" fill="#f1d9d0"/>
		<path d="M146.1,506.37c-2.61,4.38-6.84,6.68-9.44,5.13c-2.61-1.55-2.61-6.36,0-10.75c2.61-4.38,6.84-6.68,9.44-5.13    C148.71,497.18,148.71,501.99,146.1,506.37z M144.28,505.29c2.57-4.32,3.42-8.56,1.76-9.55c-1.66-0.99-4.98,1.78-7.55,6.11    c-2.57,4.32-3.42,8.57-1.76,9.55C138.38,512.38,141.7,509.61,144.28,505.29z" fill="#f1d9d0"/>
		<path d="M155.14,516.87l-1.87,3.53l-8.93-4.72l0.06-0.11c5.9-6.9,11.37-4.43,13.85-9.12c0.63-1.19,1.16-3.26-0.82-4.31    c-0.9-0.48-2.1-0.56-3.18-0.2c-1.07,0.4-1.93,1.32-2.68,2.74l-0.11-0.06l1.87-3.53l0.11,0.06c-0.76,1.43-0.03,1.03,0.31,0.87    l-0.01,0c1.18-0.57,2.6-0.6,3.75,0c1.99,1.05,3.61,3.32,2.21,5.97c-2.32,4.38-8.18,1.35-13.8,6.25l6.88,3.64    c1.1,0.58,1.5,0.37,2.26-1.07L155.14,516.87z" fill="#f1d9d0"/>
		<path d="M169.13,517.59l-1.44,3.05l-1.81-0.85l-1.86,3.95c-0.53,1.13-0.3,1.51,1.17,2.21l-0.05,0.11l-5.42-2.55l0.05-0.11    c1.47,0.69,1.91,0.62,2.45-0.5l1.86-3.95l-6.42-3.02l13.21-7.02l0.11,0.05l-4.52,9.6l0.34,0.16c1.13,0.53,1.51,0.3,2.2-1.17    L169.13,517.59z M164.66,517.7l3.4-7.22l-8.79,4.68L164.66,517.7z" fill="#f1d9d0"/>
	</g>
	<path style="fill:none;stroke:#f1d9d0;stroke-width:3;stroke-miterlimit:10;" d="M184.82,524.61c2.64,1.03,5.66,2.1,9.01,3.22c140.48,47.09,292.54-28.63,339.62-169.11   S504.82,66.18,364.34,19.09c-3.04-1.02-6.08-1.96-9.12-2.86C217.33-24.67,70.79,50.75,24.72,188.2"/>
	<g>
		<g>
			<path d="M250.35,298.46 M216.99,251.94 M221.87,289.86c-9.58-10.23-17.56-23.02-23.55-38.41     c-15.98-41.05-24.73-53.35-38.16-53.35l-26.51-0.01v73.22c0,12.62,3.79,15.15,20.2,15.15v1.26h-60.6v-1.26     c16.41,0,20.2-2.52,20.2-15.15V122.36c0-12.62-3.79-15.15-20.2-15.15v-1.26h66.91c26.51,0,61.86,13.89,61.86,47.33     c0,23.77-22.27,41.64-53.2,44.45c15.92,3.27,32.77,16.54,47.16,51.81L221.87,289.86z M246.25,308.77 M250.35,298.46     c23.15,18.78,56.41,26.81,103.13,9.48v1.26c-39.49,15.65-77.45,15.71-107.22-0.44L250.35,298.46z M160.16,196.85     c21.46,0,41.66-22.73,41.66-43.58c0-33.44-26.51-46.06-41.66-46.06h-26.51v89.63L160.16,196.85z" fill="#f1d9d0"/>
		</g>
		<g>
			<g>
				<path d="M484.03,359.55c0,54.28-31.56,111.09-94.68,111.09h-60.6v-1.26c16.41,0,20.2-2.52,20.2-15.15V305.26      c0-12.62-3.79-15.15-20.2-15.15v-1.26h60.6v1.26c-16.41,0-20.2,2.53-20.2,15.15v164.12h20.2c47.97,0,73.22-49.24,73.22-109.83      c0-50.5-13.89-109.83-89.63-109.83c-47.97,0-93.42,36.61-93.42,85.85c0,46.68,25.57,72.89,59.33,81.89v1.2      c-35.04-9.36-60.6-36.2-60.6-83.09c0-51.79,47.97-87.11,94.68-87.11C452.47,248.45,484.03,314.1,484.03,359.55z" fill="#f1d9d0"/>
			</g>
			<g>
				<path style="fill:none;stroke:#f1d9d0;" d="M484.03,359.55c0,54.28-31.56,111.09-94.68,111.09h-60.6v-1.26c16.41,0,20.2-2.52,20.2-15.15V305.26      c0-12.62-3.79-15.15-20.2-15.15v-1.26h60.6v1.26c-16.41,0-20.2,2.53-20.2,15.15v164.12h20.2c47.97,0,73.22-49.24,73.22-109.83      c0-50.5-13.89-109.83-89.63-109.83c-47.97,0-93.42,36.61-93.42,85.85c0,46.68,25.57,72.89,59.33,81.89v1.2      c-35.04-9.36-60.6-36.2-60.6-83.09c0-51.79,47.97-87.11,94.68-87.11C452.47,248.45,484.03,314.1,484.03,359.55z"/>
			</g>
		</g>
		<g>
			<path style="fill:none;" d="M367.66,143.59c-0.4,0.08-0.87,0.07-1.18,0.28c-1.18,0.82-2.33,1.68-3.45,2.6     c-7.7,6.4-13.25,14.46-17.44,23.43c-3.54,7.59-6.72,15.35-10.03,23.05c-2.71,6.31-5.58,12.56-9.38,18.32     c-8.91,13.53-21.04,22.96-36.42,28.14c-4.61,1.55-9.34,2.61-14.25,2.64c-6.75,0.05-12.99-1.99-18.94-4.9     c-6.62-3.23-13.11-6.74-19.58-10.08c4.6,0.55,9.15,1.91,13.67,3.31c5.97,1.85,11.93,3.82,18.2,4.39     c4.08,0.38,8.13,0.19,11.96-1.5c2.26-0.99,4.13-2.46,5.34-4.66c0.16-0.28,0.28-0.82,0.14-0.98c-0.21-0.23-0.72-0.4-1.04-0.32     c-0.93,0.2-1.87,0.49-2.77,0.84c-1.91,0.73-3.76,1.63-5.71,2.24c-1.68,0.53-3.44,0.95-5.33,0.51c0.13-0.46,0.2-0.85,0.35-1.2     c1.58-3.51,2.94-7.13,4.81-10.48c4.12-7.37,7.85-14.9,9.72-23.18c0.68-3.04,1.45-6.13,1.55-9.22c0.13-3.41-0.13-6.88-1.53-10.14     c-0.51-1.18-0.9-1.48-1.77-0.51c-1.13,1.23-2.28,2.55-2.94,4.05c-3.2,7.27-6.18,14.64-9.35,21.93     c-2.84,6.53-5.95,12.95-10.22,18.7c-1.49,1.99-3.37,3.71-5.22,5.4c-0.9,0.84-2.14,1.26-3.64,0.87c0.28-0.41,0.49-0.73,0.71-1.05     c2.35-3.47,3.44-7.26,2.71-11.45c-0.63-3.65-2.18-6.96-4.42-9.84c-3.13-4.03-6.44-7.93-9.77-11.78     c-3.42-3.93-7.04-7.69-9.77-12.18c-1.47-2.4-2.6-4.94-2.81-7.73c-0.27-3.35,0.96-6.27,3.07-8.84c4.03-4.91,9.41-7.19,15.52-7.99     c5.9-0.77,11.78-0.36,17.61,0.61c8.4,1.38,16.78,2.91,25.16,4.47c10.68,1.98,21.37,3.68,32.29,3.58     c4.12-0.04,8.19-0.36,12.18-1.42c7.44-1.96,13.62-6.01,18.9-11.54c0.91-0.95,0.94-1.92,0.12-2.74c-0.8-0.81-1.7-0.81-2.66,0.06     c-5.8,5.25-12.65,8.18-20.34,9.13c-3.99,0.49-8.02,0.62-12.04,0.78c-4.9,0.19-9.78-0.03-14.6-1.02     c-8.16-1.68-16.32-3.42-24.48-5.14c-8.42-1.76-16.88-3.22-25.52-3.08c-6.22,0.1-12.27,1.04-17.73,4.26     c-6.44,3.79-10.8,9.13-11.66,16.79c-0.54,4.79,0.39,9.2,3.71,12.95c1.64,1.85,3.17,3.82,4.71,5.76c0.94,1.18,1.44,2.52,1.6,4.05     c0.6,5.45,0.8,10.91,0.21,16.36c-0.36,3.23-0.97,6.41-2.56,9.3c-1.1,2-2.59,3.61-4.93,4.01c-2.76,0.47-4.75,1.93-6.17,4.27     c-1.44,2.35-2.07,4.97-2.42,7.65c-1.18,8.92-0.03,17.74,1.29,26.52c0.94,6.25,2.25,12.45,3.43,18.66     c0.88,4.63,1.74,9.25,2.78,13.84c1.14,5.08,1.27,10.18,0.85,15.33c-0.69,8.48-2.74,16.72-4.36,25.05     c-1.09,5.63-2.48,11.24-2.65,17.02c-0.05,1.65-0.22,3.56,1.23,4.61c1.1,0.8,1.24,1.68,1.33,2.78c0.02,0.21,0.04,0.43,0.11,0.64     c0.23,0.74,0.71,0.87,1.3,0.41c0.29-0.24,0.55-0.57,0.74-0.91c1.94-3.23,3.35-6.69,4.07-10.39c1.96-10.23,3.86-20.47,5.76-30.71     c0.16-0.88,0.36-1.58,1.45-1.64c0.33-0.02,0.72-0.39,0.92-0.69c0.44-0.72,0.89-1.48,1.17-2.29c2.55-7.29,5.02-14.62,7.6-21.9     c2.94-8.32,6.17-16.5,10.76-24.09c4.19-6.95,9.3-13.08,16.21-17.49c2.25-1.44,4.66-2.98,7.2-3.54     c5.45-1.22,10.86-2.46,16.03-4.62c9.34-3.92,17.48-9.61,24.52-16.88c6.17-6.35,10.75-13.77,14.23-21.85     c3-6.97,5.74-14.04,8.61-21.07c2.75-6.7,5.82-13.27,10.14-19.11c3.53-4.79,7.47-9.31,11.1-14.04c0.93-1.21,1.46-2.75,2.09-4.19     C367.92,144.46,367.71,143.99,367.66,143.59z M257.17,228.54c1.94-1.85,3.7-3.38,5.3-5.07c4.68-4.95,8.27-10.67,11.22-16.78     c3.3-6.83,6.49-13.71,9.68-20.58c0.67-1.43,1.13-2.93,1.88-4.35c-0.23,1.29-0.48,2.59-0.7,3.88c-1.19,6.76-2.46,13.5-4.82,19.97     c-2.81,7.71-6.58,14.92-11.86,21.27c-1.06,1.27-2.29,2.27-3.96,2.62c-0.42,0.09-0.86,0.15-1.27,0.08     C260.9,229.29,259.15,228.92,257.17,228.54z M249.31,225.39c-0.26,0.79-0.73,0.48-1.19,0.38c-3.04-0.7-6.08-1.42-9.13-2.09     c-1.03-0.23-2.1-0.29-3.34-0.47c3.75-8.47,4.69-17.22,3.87-26.46c0.7,0.65,1.27,1.16,1.81,1.68c2.82,2.78,5.61,5.57,7.77,8.93     c1.49,2.33,2.52,4.82,2.84,7.6c0.21,1.77-0.06,3.44-0.66,5.08C250.63,221.83,249.92,223.6,249.31,225.39z M238.44,294.18     c-0.02,0.06-0.09,0.1-0.25,0.29c-0.62-4.66-2.47-8.6-5.31-12.12c-1.54-1.9-2.15-4.24-2.53-6.58c-0.6-3.61-1.04-7.25-1.56-10.88     c-0.48-3.34-1.16-6.67-1.39-10.02c-0.36-5.37-0.46-10.76-0.61-16.14c-0.1-3.3-0.05-6.61-0.13-9.91c-0.02-0.87,0.21-1.04,1.04-0.9     c5.08,0.85,9.69,2.93,14.1,5.47c4.89,2.82,9.7,5.76,14.59,8.57c3.51,1.99,7.24,3.48,11.43,4.43c-0.75,0.55-1.33,0.98-1.91,1.41     c-5.74,4.32-10.19,9.79-14.07,15.77c-5.43,8.39-9.13,17.59-12.26,27.03C239.19,291.78,238.83,292.98,238.44,294.18z"/>
			<defs fill="#f1d9d0">
				<filter id="Adobe_OpacityMaskFilter" filterUnits="userSpaceOnUse" x="218.05" y="141.99" width="151.1" height="219.79" fill="#f1d9d0">
					<feColorMatrix type="matrix" values="1 0 0 0 0  0 1 0 0 0  0 0 1 0 0  0 0 0 1 0" fill="#f1d9d0"/>
				</filter>
			</defs>
			<mask maskUnits="userSpaceOnUse" x="218.05" y="141.99" width="151.1" height="219.79" id="SVGID_1_" fill="#f1d9d0">
				<g style="filter:url(#Adobe_OpacityMaskFilter);">
				</g>
			</mask>
			<path style="mask:url(#SVGID_1_);fill:none;stroke:#f1d9d0;stroke-miterlimit:10;" d="M368.54,143.8c-0.02-0.11-0.05-0.2-0.06-0.31l-0.11-0.89l-0.87,0.2c-0.11,0.02-0.22,0.03-0.32,0.04     c-0.35,0.05-0.78,0.09-1.16,0.36c-1.32,0.92-2.46,1.79-3.5,2.64c-7.24,6.02-13.02,13.78-17.66,23.73     c-2.67,5.71-5.16,11.6-7.59,17.3c-0.82,1.92-1.63,3.85-2.45,5.76c-2.59,6.04-5.5,12.4-9.32,18.19     c-8.8,13.38-20.92,22.74-35.99,27.82c-5.11,1.72-9.7,2.57-14,2.6c-5.87,0.04-11.77-1.49-18.58-4.82c-4.6-2.25-9.2-4.66-13.66-7     c-0.38-0.19-0.76-0.4-1.13-0.59c2.68,0.62,5.4,1.44,8.29,2.34l1.41,0.44c5.45,1.7,11.09,3.45,16.95,3.99     c4.98,0.46,8.91-0.05,12.36-1.57c2.63-1.17,4.51-2.81,5.73-5.01c0.01-0.01,0.67-1.22,0.04-1.91c-0.41-0.47-1.21-0.72-1.81-0.6     c-0.93,0.21-1.9,0.51-2.89,0.88c-0.72,0.27-1.42,0.57-2.14,0.87c-1.15,0.48-2.34,0.98-3.52,1.35c-1.48,0.45-2.76,0.75-4.06,0.63     c0.02-0.07,0.04-0.14,0.08-0.21c0.46-1.06,0.93-2.12,1.38-3.2c1.03-2.42,2.1-4.91,3.39-7.21c3.93-7.05,7.85-14.76,9.79-23.41     l0.19-0.81c0.63-2.78,1.27-5.66,1.39-8.55c0.09-2.68,0.03-6.69-1.61-10.51c-0.3-0.69-0.68-1.43-1.45-1.57     c-0.8-0.14-1.43,0.56-1.67,0.83c-1.18,1.28-2.37,2.67-3.08,4.28c-1.7,3.85-3.35,7.79-4.95,11.59c-1.45,3.46-2.91,6.9-4.4,10.34     c-2.7,6.19-5.79,12.72-10.14,18.53c-1.44,1.93-3.3,3.64-5.11,5.29c-0.36,0.34-0.91,0.68-1.63,0.78     c2.55-3.82,3.48-7.84,2.77-11.94c-0.63-3.68-2.17-7.12-4.58-10.21c-3.3-4.25-6.81-8.36-9.8-11.81c-0.66-0.76-1.32-1.5-1.98-2.26     c-2.73-3.07-5.54-6.25-7.71-9.82c-1.65-2.71-2.51-5.05-2.69-7.37c-0.23-2.89,0.71-5.6,2.89-8.25c3.56-4.32,8.46-6.84,15.01-7.7     c5.16-0.67,10.85-0.47,17.36,0.6c8.8,1.45,17.64,3.07,25.15,4.47c9.7,1.79,21,3.7,32.45,3.58c4.92-0.04,8.85-0.5,12.39-1.43     c7.22-1.91,13.53-5.76,19.28-11.77c1.2-1.26,1.24-2.74,0.1-3.88c-1.13-1.14-2.51-1.13-3.79,0.03     c-5.49,4.98-12.18,7.97-19.88,8.91c-3.62,0.45-7.35,0.59-10.96,0.73l-1.03,0.05c-5.35,0.22-10.06-0.11-14.4-1     c-5.47-1.13-10.95-2.28-16.43-3.43l-8.04-1.69c-8.1-1.7-16.82-3.25-25.71-3.11c-7.5,0.11-13.27,1.51-18.13,4.38     c-7.16,4.23-11.23,10.08-12.05,17.4c-0.63,5.47,0.65,9.91,3.91,13.59c1.4,1.58,2.74,3.29,4.05,4.93l0.63,0.79     c0.8,1.02,1.27,2.21,1.43,3.63c0.66,6.05,0.73,11.35,0.21,16.18c-0.3,2.78-0.83,6.04-2.45,8.99c-1.19,2.15-2.57,3.28-4.35,3.59     c-2.89,0.5-5.15,2.06-6.73,4.65c-1.31,2.14-2.09,4.59-2.53,7.97c-1.19,8.93-0.07,17.74,1.3,26.75c0.71,4.72,1.65,9.47,2.55,14.07     c0.3,1.54,0.6,3.08,0.89,4.61l0.35,1.82c0.76,3.96,1.53,8.05,2.43,12.05c1.02,4.53,1.3,9.47,0.84,15.08     c-0.52,6.34-1.83,12.69-3.09,18.82c-0.43,2.05-0.85,4.1-1.25,6.14c-0.21,1.1-0.44,2.18-0.66,3.28c-0.92,4.5-1.87,9.14-2.01,13.88     l-0.01,0.31c-0.05,1.67-0.12,3.74,1.58,4.98c0.78,0.57,0.91,1.1,1,2.18c0.03,0.26,0.05,0.53,0.14,0.81     c0.25,0.81,0.71,1.1,1.05,1.21c0.15,0.04,0.34,0.08,0.54,0.06c0.29-0.03,0.63-0.15,1-0.45c0.34-0.26,0.65-0.64,0.94-1.12     c2.08-3.47,3.48-7.06,4.17-10.66c1.79-9.38,3.57-18.91,5.28-28.13l0.48-2.6c0.17-0.89,0.27-0.94,0.69-0.96     c0.73-0.03,1.32-0.7,1.56-1.08c0.44-0.71,0.94-1.55,1.26-2.45c1.07-3.04,2.11-6.1,3.16-9.14c1.46-4.26,2.93-8.52,4.44-12.76     c2.78-7.85,6-16.2,10.68-23.94c4.65-7.71,9.87-13.34,15.95-17.22c2.12-1.36,4.52-2.9,6.94-3.43c5.08-1.14,10.84-2.43,16.15-4.65     c9.23-3.86,17.57-9.61,24.81-17.06c5.89-6.08,10.6-13.31,14.38-22.1c2.04-4.73,3.99-9.58,5.87-14.27     c0.91-2.27,1.83-4.54,2.75-6.8c2.42-5.92,5.51-12.79,10.03-18.94c2.02-2.73,4.19-5.42,6.3-8.02c1.59-1.96,3.23-3.97,4.79-6.01     c0.79-1.04,1.31-2.26,1.8-3.44c0.12-0.31,0.26-0.62,0.39-0.93C368.73,144.64,368.63,144.17,368.54,143.8z M236.84,222.54     c2.98-7.18,4.18-14.99,3.66-23.76c0.1,0.08,0.18,0.17,0.27,0.25c3.1,3.04,5.63,5.62,7.65,8.78c1.55,2.41,2.43,4.78,2.72,7.25     c0.18,1.55-0.02,3.08-0.62,4.7c-0.21,0.59-0.44,1.18-0.67,1.78c-0.43,1.14-0.86,2.28-1.29,3.51c-0.09-0.02-0.17-0.05-0.26-0.07     l-3.03-0.69c-2.03-0.47-4.06-0.94-6.11-1.38c-0.74-0.16-1.48-0.25-2.26-0.34C236.88,222.55,236.86,222.55,236.84,222.54z      M265.93,246.75c-0.17,0.13-0.34,0.25-0.51,0.38c-5.22,3.93-9.75,9.01-14.26,15.98c-6.02,9.31-9.75,19.44-12.34,27.22     c-0.13,0.39-0.25,0.76-0.37,1.14c-0.88-3.46-2.52-6.63-4.94-9.64c-1.48-1.83-2.02-4.16-2.35-6.2c-0.42-2.46-0.76-4.98-1.08-7.42     c-0.16-1.15-0.32-2.29-0.48-3.44c-0.15-1.06-0.32-2.12-0.49-3.18c-0.36-2.22-0.74-4.52-0.89-6.79c-0.3-4.46-0.42-9.02-0.54-13.44     l-0.07-2.67c-0.04-1.71-0.06-3.41-0.06-5.12c-0.01-1.59-0.01-3.19-0.05-4.79c0-0.03-0.01-0.05,0-0.09     c0.02,0.01,0.06,0.01,0.09,0.01c4.31,0.72,8.7,2.43,13.81,5.38c2.27,1.32,4.53,2.65,6.79,3.99c2.6,1.54,5.19,3.08,7.81,4.58     C259.16,244.47,262.43,245.82,265.93,246.75z"/>
			<path style="fill:none;" d="M224.52,359.65L224.52,359.65L224.52,359.65z"/>
			<path d="M366.95,144.54c-1.28,0.9-2.39,1.74-3.38,2.56c-7.04,5.86-12.68,13.43-17.22,23.16c-2.65,5.68-5.15,11.56-7.56,17.25     c-0.82,1.92-1.63,3.85-2.46,5.77c-2.61,6.09-5.57,12.55-9.45,18.44c-9.02,13.69-21.42,23.27-36.85,28.46     c-5.28,1.78-10.02,2.66-14.51,2.69c-6.13,0.04-12.27-1.55-19.31-4.98c-4.62-2.26-9.24-4.68-13.7-7.02     c-1.97-1.03-3.92-2.06-5.89-3.07l-4.02-2.09l4.49,0.55c4.58,0.55,8.96,1.83,13.82,3.34l1.43,0.44c5.36,1.68,10.92,3.4,16.61,3.93     c4.69,0.43,8.37-0.03,11.55-1.44c2.3-1.02,3.92-2.42,4.96-4.31c0.02-0.02,0.04-0.06,0.04-0.1c-0.02,0-0.04-0.01-0.06-0.01     c-0.84,0.19-1.73,0.46-2.64,0.81c-0.71,0.27-1.4,0.56-2.1,0.85c-1.18,0.49-2.4,1.01-3.66,1.41c-1.76,0.55-3.69,0.99-5.76,0.51     l-0.84-0.19l0.23-0.83c0.04-0.14,0.08-0.27,0.11-0.4c0.07-0.3,0.15-0.61,0.29-0.91c0.47-1.04,0.92-2.1,1.37-3.16     c1.05-2.45,2.13-4.99,3.45-7.37c3.89-6.95,7.74-14.53,9.64-22.97l0.18-0.82c0.62-2.7,1.26-5.51,1.36-8.25     c0.1-2.8-0.09-5.15-0.61-7.23l-0.63,3.53c-0.16,0.89-0.31,1.79-0.48,2.69c-1.21,6.9-2.48,13.62-4.85,20.12     c-3.1,8.49-7.02,15.51-12,21.5c-1.36,1.64-2.77,2.56-4.42,2.9c-0.5,0.11-1.04,0.19-1.58,0.09c-1.27-0.21-2.55-0.47-3.9-0.74     l-3.14-0.62l1.14-1.09c0.63-0.6,1.23-1.16,1.82-1.72c1.22-1.13,2.38-2.2,3.45-3.33c4.24-4.49,7.87-9.91,11.08-16.58     c3.35-6.94,6.57-13.87,9.68-20.56c0.27-0.6,0.52-1.2,0.76-1.82c0.33-0.84,0.68-1.72,1.12-2.57l1.59-3.06     c-0.16-0.46-0.32-0.89-0.5-1.31c-0.1-0.23-0.17-0.39-0.23-0.48c-0.05,0.05-0.11,0.11-0.18,0.18c-1.08,1.19-2.18,2.47-2.78,3.84     c-1.69,3.83-3.34,7.77-4.95,11.57c-1.45,3.46-2.9,6.91-4.4,10.35c-2.74,6.28-5.88,12.91-10.33,18.86     c-1.54,2.06-3.45,3.82-5.31,5.52c-1.2,1.11-2.77,1.48-4.4,1.07l-1.11-0.29l1.34-2.01c2.39-3.54,3.24-7.09,2.6-10.85     c-0.59-3.42-2.03-6.6-4.27-9.49c-3.28-4.22-6.76-8.3-9.75-11.73c-0.65-0.76-1.31-1.5-1.97-2.25c-2.77-3.13-5.64-6.36-7.88-10.05     c-1.8-2.93-2.72-5.51-2.93-8.09c-0.26-3.3,0.83-6.46,3.26-9.41c3.83-4.66,9.08-7.38,16.05-8.28c5.33-0.7,11.17-0.49,17.85,0.61     c8.8,1.45,17.66,3.07,25.17,4.46c9.62,1.78,20.84,3.67,32.13,3.56c4.79-0.05,8.59-0.49,11.99-1.39     c6.92-1.82,12.99-5.52,18.51-11.31c0.74-0.78,0.5-1.22,0.14-1.6c-0.35-0.34-0.74-0.62-1.54,0.1c-5.75,5.2-12.74,8.34-20.79,9.32     c-3.68,0.46-7.45,0.6-11.09,0.75l-1.03,0.04c-5.48,0.23-10.32-0.11-14.78-1.03c-5.48-1.12-10.96-2.28-16.44-3.43l-8.05-1.69     c-8-1.68-16.61-3.22-25.34-3.08c-1.58,0.03-3.08,0.11-4.5,0.25c-5.08,0.51-9.23,1.78-12.83,3.9c-6.8,4-10.48,9.29-11.26,16.17     c-0.56,4.99,0.58,9.02,3.51,12.32c1.43,1.62,2.8,3.34,4.11,5l0.63,0.79c1,1.27,1.59,2.72,1.77,4.47     c0.67,6.17,0.74,11.58,0.21,16.53c-0.32,2.95-0.88,6.39-2.66,9.61c-1.42,2.58-3.21,4.03-5.5,4.42c-2.44,0.41-4.27,1.69-5.62,3.88     c-1.18,1.94-1.89,4.2-2.3,7.33c-1.16,8.72-0.04,17.41,1.29,26.29c0.71,4.69,1.63,9.42,2.53,14.01c0.31,1.54,0.6,3.08,0.9,4.61     l0.35,1.83c0.75,3.95,1.53,8.03,2.42,11.99c1.06,4.7,1.35,9.8,0.88,15.57c-0.53,6.44-1.85,12.84-3.13,19.02     c-0.43,2.04-0.85,4.09-1.24,6.12c-0.22,1.1-0.44,2.19-0.67,3.29c-0.89,4.43-1.84,9.02-1.97,13.61l-0.01,0.32     c-0.06,1.74-0.03,2.92,0.91,3.6c1.36,0.99,1.56,2.16,1.66,3.37c0.02,0.15,0.03,0.33,0.07,0.46c0,0,0,0,0.01,0.01     c0.18-0.14,0.36-0.36,0.56-0.69c1.97-3.3,3.31-6.71,3.96-10.12c1.79-9.37,3.57-18.91,5.28-28.12l0.49-2.59     c0.14-0.77,0.4-2.2,2.21-2.3c0-0.01,0.16-0.16,0.25-0.31c0.4-0.63,0.84-1.38,1.1-2.13c1.07-3.03,2.11-6.09,3.15-9.13     c1.47-4.26,2.94-8.53,4.44-12.77c2.81-7.94,6.07-16.37,10.83-24.24c4.79-7.92,10.18-13.74,16.47-17.75     c2.24-1.43,4.76-3.04,7.46-3.65c5.25-1.18,10.7-2.4,15.89-4.57c9.01-3.76,17.17-9.38,24.26-16.69c5.75-5.93,10.34-13,14.05-21.61     c2.03-4.71,3.98-9.55,5.85-14.24c0.92-2.26,1.84-4.54,2.76-6.81c2.46-6,5.58-12.99,10.23-19.29c2.04-2.76,4.23-5.47,6.35-8.08     c1.58-1.95,3.21-3.95,4.76-5.97c0.67-0.87,1.11-1.93,1.59-3.06l0.37-0.89C366.98,144.52,366.96,144.54,366.95,144.54z      M248.3,224.97l-3.03-0.69c-2.03-0.47-4.06-0.94-6.11-1.38c-0.74-0.16-1.48-0.25-2.26-0.34c-0.02,0-0.04,0-0.07,0     c2.98-7.18,4.18-14.99,3.66-23.76c0.1,0.08,0.18,0.17,0.27,0.25c3.1,3.04,5.63,5.62,7.65,8.78c1.55,2.41,2.43,4.78,2.72,7.25     c0.18,1.55-0.02,3.08-0.62,4.7c-0.21,0.59-0.44,1.18-0.67,1.78c-0.43,1.14-0.86,2.28-1.29,3.51     C248.47,225.01,248.39,224.99,248.3,224.97z M227.49,228.69c0.02,0.01,0.06,0.01,0.09,0.01c4.31,0.72,8.7,2.43,13.81,5.38     c2.27,1.32,4.53,2.65,6.79,3.99c2.6,1.54,5.19,3.08,7.81,4.58c3.16,1.81,6.43,3.16,9.94,4.09c-0.17,0.13-0.34,0.25-0.51,0.38     c-5.22,3.93-9.75,9.01-14.26,15.98c-6.02,9.31-9.75,19.44-12.34,27.22c-0.13,0.39-0.25,0.76-0.37,1.14     c-0.88-3.46-2.52-6.63-4.94-9.64c-1.48-1.83-2.02-4.16-2.35-6.2c-0.42-2.46-0.76-4.98-1.08-7.42c-0.16-1.15-0.32-2.29-0.48-3.44     c-0.15-1.06-0.32-2.12-0.49-3.18c-0.36-2.22-0.74-4.52-0.89-6.79c-0.3-4.46-0.42-9.02-0.54-13.44l-0.07-2.67     c-0.04-1.71-0.06-3.41-0.06-5.12c-0.01-1.59-0.01-3.19-0.05-4.79C227.48,228.75,227.48,228.73,227.49,228.69z" fill="#f1d9d0"/>
			<path style="fill:none;" d="M258.89,228.04l0.04,0.01c1.34,0.27,2.6,0.52,3.86,0.74c0.26,0.05,0.62-0.01,0.96-0.09     c1.28-0.26,2.39-1.01,3.5-2.35c4.86-5.84,8.69-12.72,11.72-21.02c2-5.48,3.21-11.17,4.27-16.99c-2.84,6.11-5.77,12.4-8.81,18.69     c-3.29,6.82-7.01,12.37-11.37,16.99c-1.1,1.16-2.27,2.25-3.51,3.41C259.33,227.63,259.11,227.84,258.89,228.04z"/>
			<path style="fill:none;" d="M249.8,206.92c-2.29-3.56-5.39-6.62-7.88-9.07c-0.38-0.36-0.75-0.7-1.17-1.1l-2.21-2.06l0.18,2.13     c0.87,9.78-0.38,18.3-3.82,26.06l-0.44,1l1.08,0.14c0.41,0.06,0.8,0.11,1.18,0.15c0.74,0.09,1.44,0.16,2.1,0.32     c2.04,0.44,4.06,0.91,6.09,1.37l3.03,0.71c0.06,0.01,0.11,0.03,0.17,0.05c0.3,0.09,0.58,0.12,0.82,0.09     c0.55-0.06,0.95-0.4,1.17-1.06c0.4-1.19,0.85-2.37,1.29-3.54c0.23-0.59,0.45-1.2,0.68-1.79c0.68-1.87,0.92-3.65,0.7-5.45     C252.45,212.14,251.48,209.54,249.8,206.92z M249.86,221.53c-0.43,1.14-0.86,2.28-1.29,3.51c-0.09-0.02-0.17-0.05-0.26-0.07     l-3.03-0.69c-2.03-0.47-4.06-0.94-6.11-1.38c-0.74-0.16-1.48-0.25-2.26-0.34c-0.02,0-0.04,0-0.07,0     c2.98-7.18,4.18-14.99,3.66-23.76c0.1,0.08,0.18,0.17,0.27,0.25c3.1,3.04,5.63,5.62,7.65,8.78c1.55,2.41,2.43,4.78,2.72,7.25     c0.18,1.55-0.02,3.08-0.62,4.7C250.31,220.35,250.08,220.94,249.86,221.53z"/>
		</g>
	</g>
	<g>
	</g>
	<g>
	</g>
	<g>
	</g>
	<g>
	</g>
	<g>
	</g>
	<g>
	</g>
</g>
</svg>