<?xml version="1.0" encoding="utf-8"?>
<!-- Generator: Adobe Illustrator 27.2.0, SVG Export Plug-In . SVG Version: 6.00 Build 0)  -->
<svg version="1.1" xmlns="http://www.w3.org/2000/svg" xmlns:xlink="http://www.w3.org/1999/xlink" x="0px" y="0px"
	 viewBox="0 0 550.96 544.81" style="enable-background:new 0 0 550.96 544.81;" xml:space="preserve">
<g id="Layer_1">
</g>
<g id="Layer_2">
	<g>
		<circle style="fill:none;" cx="278.83" cy="272.95" r="268.53"/>
		<path style="fill:#701E25;" d="M8.62,214.84l-0.11-0.03c0.28-1.17,1.14-3.32,4.74-3.35c3.02-0.02,4.28-0.96,4.49-1.84l0.54-2.23
			l-6.16-1.49c-1.06-0.26-1.35,0.01-1.68,1.39l-0.11-0.02l1.23-5.1l0.11,0.03c-0.33,1.38-0.2,1.75,0.86,2.01l12.53,3.02
			c1.06,0.26,1.35-0.01,1.68-1.39l0.11,0.03l-1.36,5.63c-0.54,2.23-2.42,4.92-5.24,4.24c-2.01-0.49-3.06-2.75-2.65-5.44
			c-0.57,1.19-2.02,2.82-4.65,2.84C11.17,213.15,8.92,213.6,8.62,214.84z M17.85,209.65c-0.44,1.8,1.07,3.96,2.82,4.39
			c2.81,0.68,4.41-1.29,4.72-2.57l0.54-2.23l-7.54-1.82L17.85,209.65z"/>
		<path style="fill:#701E25;" d="M7.96,227.06l-1.72-0.32l1.87-9.87l0.11,0.02c-0.26,1.4-0.11,1.76,0.96,1.96l12.66,2.4
			c1.07,0.2,1.35-0.08,1.61-1.47l0.11,0.02l-1.81,9.55l-1.71-0.32l0.02-0.11c1.29,0.24,1.65,0.09,1.85-0.98l0.89-4.72l-7.51-1.42
			l-0.65,3.43c-0.2,1.07,0.08,1.35,1.47,1.61l-0.02,0.11l-3.54-0.67l0.02-0.11c1.4,0.26,1.76,0.11,1.96-0.96l0.65-3.43l-7.62-1.44
			l-0.95,5.04c-0.2,1.07,0.08,1.35,1.37,1.59L7.96,227.06z"/>
		<path style="fill:#701E25;" d="M5.02,234.93l0.8-5.73l0.11,0.02c-0.2,1.41-0.03,1.76,1.06,1.91l12.76,1.78
			c1.08,0.15,1.34-0.14,1.54-1.55l0.11,0.01l-0.76,5.41c-0.32,2.27-1.71,4.61-4.23,4.26c-1.73-0.24-3.19-1.65-3.16-4.43
			c-0.58,2.81-1.82,4.94-4.68,4.54C6.35,240.85,4.47,238.82,5.02,234.93z M8.8,239.43c3.11,0.44,4.33-2.65,4.52-3.97
			c0-0.01,0.23-1.65,0.23-1.65l-8.11-1.13l-0.3,2.16C4.78,237.43,6.58,239.12,8.8,239.43z M13.66,233.82c0,0-0.23,1.64-0.23,1.66
			c-0.3,2.25,1.26,3.56,3.21,3.83c2.34,0.33,3.7-1.25,3.88-2.54l0.27-1.95L13.66,233.82z"/>
		<path style="fill:#701E25;" d="M4.81,252.87l-1.74-0.16l0.92-10l0.11,0.01c-0.13,1.41,0.06,1.76,1.14,1.86l12.83,1.18
			c1.09,0.1,1.33-0.21,1.47-1.62l0.11,0.01l-0.89,9.67l-1.74-0.16l0.01-0.11c1.3,0.12,1.65-0.07,1.75-1.15l0.44-4.78l-7.61-0.7
			l-0.32,3.48c-0.1,1.09,0.21,1.33,1.62,1.47l-0.01,0.11l-3.59-0.33l0.01-0.11c1.41,0.13,1.76-0.06,1.86-1.14l0.32-3.48l-7.72-0.71
			l-0.47,5.11c-0.1,1.09,0.21,1.33,1.51,1.46L4.81,252.87z"/>
		<path style="fill:#701E25;" d="M5.91,268.84c-2.04-0.85-3.83-2.63-3.71-5.5c0.18-4.52,3.99-8.03,8.51-7.85
			c4.52,0.18,8.03,3.99,7.85,8.51c-0.08,1.97-1.27,3.35-2.44,4.15c-0.05,0.03-0.31,0.2-0.46,0.29c0,0,0,0,0,0
			c-0.31,0.19-0.42,0.35,0.74,0.39l0,0.11l-3.49-0.14l0-0.11c1.41,0.06,2.44-0.16,3.27-0.73c1.32-0.92,2.2-2.31,2.27-3.96
			c0.14-3.55-3.46-6.48-7.82-6.65c-4.36-0.17-8.18,2.45-8.32,6c-0.09,2.23,1.01,4.23,3.61,5.39L5.91,268.84z"/>
		<path style="fill:#701E25;" d="M3.32,298.35l-0.11,0l-0.23-5.24l0.11,0c0.06,1.32,0.48,1.53,1.21,1.28l3.92-1.5l-0.28-6.25
			c-2.42-0.67-5.67-2.18-5.83-5.94c-0.2-4.52,3.3-8.34,7.82-8.54s8.34,3.3,8.54,7.82c0.09,1.97-0.99,3.45-2.09,4.34
			c-0.04,0.04-0.29,0.22-0.43,0.32c-0.29,0.21-0.39,0.38,0.77,0.33l0,0.11l-3.49,0.15l-0.01-0.11c1.41-0.06,2.42-0.36,3.2-1.01
			c1.24-1.02,2-2.48,1.93-4.14c-0.16-3.55-3.99-6.16-8.35-5.97c-4.36,0.19-7.95,3.13-7.79,6.68c0.15,3.49,3.07,5.11,5.83,5.86
			l9.75,2.57c0.4-0.02,0.61-0.46,0.57-1.49l0.11,0l0.14,3.05l-14.08,5.39C3.56,296.44,3.26,296.93,3.32,298.35z M8.32,292.85
			l9.45-3.62l-9.72-2.56L8.32,292.85z"/>
		<path style="fill:#701E25;" d="M7.13,322.91l-0.11,0.02l-0.33-2.05c0.23-0.3,0.51-0.67,0.83-1.1c-0.96-0.86-1.67-2.08-1.92-3.59
			c-0.49-3.02,0.76-5.87,4-6.39c2.31-0.37,4.26,0.94,5.23,2.83c0.68-0.39,1.39-0.7,2.1-0.91c2.64-0.76,4.49,0.38,4.8,2.32
			c0.28,1.72-0.59,3.19-2.53,3.5c-1.8,0.29-3.11-1.17-3.62-2.06l0.72,3.3l-0.38-0.27l-0.24-1.49c-0.09,1.25-0.69,3.26-2.89,3.96
			c-1.31,0.42-2.73,0.28-3.96-0.31C8.11,321.6,7.52,322.4,7.13,322.91z M7.66,319.6c1.56-2.04,4.03-5.07,6.88-6.81
			c-0.96-1.07-2.58-1.61-4.49-1.3c-4.81,0.77-5.23,5.23-2.89,7.66C7.32,319.32,7.49,319.47,7.66,319.6z M12.73,320
			c2.07-0.74,3.03-2.54,2.83-3.77l-0.21-1.27l0.11-0.02c0.38,1.34,2.04,1.66,3.44,1.44c1.46-0.23,2.91-1.13,2.72-2.32
			c-0.26-1.62-2.18-1.86-4.28-1.19c-2.73,0.87-6.02,4.64-8.23,7.45C10.28,320.61,11.55,320.42,12.73,320z"/>
		<path style="fill:#701E25;" d="M20.17,345.49c-4.38,1.12-8.43-1.23-9.64-5.99l-1.3-5.08l0.11-0.03c0.35,1.38,0.64,1.64,1.7,1.37
			l12.48-3.19c1.06-0.27,1.19-0.64,0.84-2.02l0.11-0.03l1.3,5.08C26.97,340.37,24.55,344.37,20.17,345.49z M19.71,343.69
			c4.23-1.08,6.86-4.46,5.94-8.05l-0.43-1.69l-15.02,3.84l0.43,1.69C11.55,343.07,15.48,344.77,19.71,343.69z"/>
		<path style="fill:#701E25;" d="M17.28,362.34l-0.1,0.03l-1.56-5l0.1-0.03c0.4,1.26,0.87,1.36,1.49,0.92l3.4-2.46l-1.87-5.96l-4,0
			c-1,0-1.28,0.31-0.85,1.67l-0.1,0.03l-1.08-3.44l0.1-0.03c0.43,1.35,0.71,1.67,1.9,1.67l13.96,0.01c0.58,0,0.77-0.45,0.41-1.62
			l0.1-0.03l0.91,2.92l-12.22,8.82C17.02,360.43,16.85,360.98,17.28,362.34z M20.7,355.74l8.16-5.89l-10-0.01L20.7,355.74z"/>
		<path style="fill:#701E25;" d="M38.12,373.31l-0.1,0.04c-0.51-1.32-0.83-1.55-1.85-1.16l-13.35,5.12l-0.04-0.1l9.65-16.1
			l-12.47,4.79c-1.02,0.39-1.1,0.78-0.6,2.1l-0.1,0.04l-1.29-3.36l0.1-0.04c0.51,1.33,0.83,1.55,1.85,1.16l12.13-4.66
			c0.92-0.35,1-0.74,0.5-2.06l0.1-0.04l1.1,2.85l-8.7,14.45l11.09-4.25c1.02-0.39,1.1-0.78,0.6-2.1l0.1-0.04L38.12,373.31z"/>
		<path style="fill:#701E25;" d="M38.77,378.14l-11.82,5.14c-1,0.44-1.07,0.82-0.5,2.12l-0.1,0.04l-2.09-4.81l0.1-0.04
			c0.57,1.3,0.9,1.52,1.9,1.08l11.82-5.14c1-0.44,1.07-0.82,0.5-2.12l0.1-0.04l2.09,4.81l-0.1,0.04
			C40.1,377.92,39.77,377.71,38.77,378.14z"/>
		<path style="fill:#701E25;" d="M32.87,395.28l-1.58,0.75l-4.31-9.07l0.1-0.05c0.61,1.28,0.95,1.48,1.93,1.02l11.64-5.53
			c0.99-0.47,1.04-0.86,0.43-2.14l0.1-0.05l4.17,8.78l-1.58,0.75l-0.05-0.1c1.18-0.56,1.39-0.9,0.92-1.89l-2.06-4.34l-6.9,3.28
			l1.5,3.16c0.47,0.99,0.86,1.04,2.14,0.43l0.05,0.1l-3.25,1.55l-0.05-0.1c1.28-0.61,1.48-0.95,1.02-1.93l-1.5-3.16l-7,3.33
			l2.2,4.63c0.47,0.99,0.86,1.04,2.04,0.48L32.87,395.28z"/>
		<path style="fill:#701E25;" d="M38.77,406.5l-1.54,0.82l-4.86-9.16l0.1-0.05c0.67,1.25,1.01,1.44,1.98,0.93L45.81,393
			c0.96-0.51,1-0.9,0.34-2.16l0.1-0.05l2.46,4.63l-0.1,0.05c-0.67-1.25-1.01-1.44-1.98-0.93l-12.53,6.66l2.56,4.82
			c0.51,0.96,0.81,1.06,2.06,0.39L38.77,406.5z"/>
		<path style="fill:#701E25;" d="M42.71,418.78L58,409.33l0.2,0.32L42.9,419.1L42.71,418.78z"/>
		<path style="fill:#701E25;" d="M75.04,433.97l-0.1,0.07c-0.96-1.31-1.38-1.46-2.39-0.72l-13.17,9.68l-0.07-0.1l5.74-20.64
			l-12.27,9.02c-1,0.74-0.98,1.19-0.02,2.5l-0.1,0.07l-2.44-3.32l0.1-0.07c0.96,1.31,1.38,1.46,2.39,0.72l11.97-8.79
			c0.9-0.67,0.88-1.12-0.08-2.42l0.1-0.07l2.07,2.82l-5.04,18.42l10.76-7.91c1.01-0.74,0.99-1.19,0.02-2.5l0.1-0.07L75.04,433.97z"
			/>
		<path style="fill:#701E25;" d="M78.59,452.07c-2.96,2.5-7.39,2.14-9.89-0.82c-2.51-2.96-2.14-7.39,0.82-9.89
			c2.96-2.5,7.39-2.14,9.89,0.82C81.91,445.13,81.54,449.56,78.59,452.07z M77.56,450.85c2.86-2.42,3.75-6.29,1.78-8.62
			c-1.97-2.33-5.94-2.08-8.79,0.34c-2.85,2.42-3.75,6.29-1.77,8.62S74.7,453.27,77.56,450.85z"/>
		<path style="fill:#701E25;" d="M92.42,456.95l-0.07,0.06c-0.83-0.89-1.21-1.01-2.11-0.6l-11.81,5.33l-0.06-0.07l5.73-11.81
			c0.4-0.8,0.31-1.31-0.52-2.2l0.07-0.06l3.07,3.28l-0.07,0.06c-0.83-0.89-1.2-0.66-1.54,0l-4.96,9.92l10.02-4.52
			c0.75-0.34,0.89-0.69,0.06-1.58l0.07-0.06L92.42,456.95z"/>
		<path style="fill:#701E25;" d="M82.52,468.08c0.3-0.31,0.8-0.31,1.11,0c0.31,0.31,0.31,0.8,0,1.11c-0.31,0.31-0.8,0.3-1.11,0
			C82.21,468.88,82.21,468.38,82.52,468.08z"/>
		<path style="fill:#701E25;" d="M96.44,481.9L96.36,482l-4.47-3.99l0.08-0.09c1.21,1.08,1.66,1.14,2.49,0.21l8.23-9.21
			c0.83-0.93,0.72-1.37-0.49-2.45l0.08-0.09c3.07,1.24,4.46,0.81,4.46,0.81l0.09,0.08l-10.89,12.19
			C95.12,480.39,95.23,480.82,96.44,481.9z"/>
		<path style="fill:#701E25;" d="M112.39,483.68c-3.24,3.94-7.77,5.56-10.11,3.64c-2.34-1.93-1.61-6.68,1.63-10.62
			c3.24-3.94,7.77-5.56,10.11-3.64S115.63,479.75,112.39,483.68z M110.75,482.33c3.2-3.88,4.68-7.95,3.19-9.17
			c-1.49-1.23-5.19,1-8.39,4.89c-3.2,3.88-4.68,7.95-3.19,9.17C103.84,488.45,107.55,486.22,110.75,482.33z"/>
		<path style="fill:#701E25;" d="M110.5,492.68c-0.07,0.09-0.16,0.16-0.26,0.21c-0.38,0.19-1.39,0.32-1.82,0.36
			c-0.23,0.03-0.22-0.2-0.03-0.26c0.22-0.05,0.53-0.14,0.7-0.26c0.25-0.18,0.13-0.39,0.11-0.66c-0.01-0.1,0.02-0.22,0.1-0.33
			c0.22-0.29,0.67-0.44,1.06-0.14C110.76,491.92,110.68,492.44,110.5,492.68z"/>
		<path style="fill:#701E25;" d="M130.73,502.9l-2.22,3.32l-8.4-5.62l0.07-0.1c6.59-6.25,11.77-3.23,14.72-7.64
			c0.75-1.12,1.49-3.13-0.38-4.38c-0.85-0.57-2.03-0.78-3.15-0.52c-1.1,0.28-2.05,1.11-2.95,2.45l-0.1-0.07l2.22-3.32l0.1,0.07
			c-0.9,1.35-0.13,1.02,0.22,0.89l-0.01,0c1.23-0.44,2.66-0.33,3.73,0.39c1.87,1.25,3.25,3.67,1.58,6.16
			c-2.76,4.12-8.28,0.5-14.38,4.8l6.47,4.33c1.04,0.69,1.45,0.52,2.35-0.83L130.73,502.9z"/>
		<path style="fill:#701E25;" d="M146.1,506.37c-2.61,4.38-6.84,6.68-9.44,5.13c-2.61-1.55-2.61-6.36,0-10.75
			c2.61-4.38,6.84-6.68,9.44-5.13C148.71,497.18,148.71,501.99,146.1,506.37z M144.28,505.29c2.57-4.32,3.42-8.56,1.76-9.55
			c-1.66-0.99-4.98,1.78-7.55,6.11c-2.57,4.32-3.42,8.57-1.76,9.55C138.38,512.38,141.7,509.61,144.28,505.29z"/>
		<path style="fill:#701E25;" d="M155.14,516.87l-1.87,3.53l-8.93-4.72l0.06-0.11c5.9-6.9,11.37-4.43,13.85-9.12
			c0.63-1.19,1.16-3.26-0.82-4.31c-0.9-0.48-2.1-0.56-3.18-0.2c-1.07,0.4-1.93,1.32-2.68,2.74l-0.11-0.06l1.87-3.53l0.11,0.06
			c-0.76,1.43-0.03,1.03,0.31,0.87l-0.01,0c1.18-0.57,2.6-0.6,3.75,0c1.99,1.05,3.61,3.32,2.21,5.97c-2.32,4.38-8.18,1.35-13.8,6.25
			l6.88,3.64c1.1,0.58,1.5,0.37,2.26-1.07L155.14,516.87z"/>
		<path style="fill:#701E25;" d="M169.13,517.59l-1.44,3.05l-1.81-0.85l-1.86,3.95c-0.53,1.13-0.3,1.51,1.17,2.21l-0.05,0.11
			l-5.42-2.55l0.05-0.11c1.47,0.69,1.91,0.62,2.45-0.5l1.86-3.95l-6.42-3.02l13.21-7.02l0.11,0.05l-4.52,9.6l0.34,0.16
			c1.13,0.53,1.51,0.3,2.2-1.17L169.13,517.59z M164.66,517.7l3.4-7.22l-8.79,4.68L164.66,517.7z"/>
	</g>
	<path style="fill:none;stroke:#701E25;stroke-width:3;stroke-miterlimit:10;" d="M184.82,524.61c2.64,1.03,5.66,2.1,9.01,3.22
		c140.48,47.09,292.54-28.63,339.62-169.11S504.82,66.18,364.34,19.09c-3.04-1.02-6.08-1.96-9.12-2.86
		C217.33-24.67,70.79,50.75,24.72,188.2"/>
	<g>
		<path style="fill:#701E25;" d="M314.81,204.06c-0.83,0.58-1.56,1.13-2.2,1.67c-4.59,3.82-8.26,8.75-11.22,15.09
			c-1.73,3.7-3.35,7.53-4.93,11.24c-0.53,1.25-1.06,2.51-1.6,3.76c-1.7,3.97-3.63,8.18-6.16,12.02
			c-5.88,8.92-13.96,15.16-24.01,18.55c-3.44,1.16-6.53,1.73-9.45,1.75c-4,0.03-7.99-1.01-12.58-3.25
			c-3.01-1.47-6.02-3.05-8.93-4.57c-1.28-0.67-2.56-1.34-3.84-2l-2.62-1.36l2.93,0.36c2.99,0.36,5.84,1.19,9,2.18l0.93,0.29
			c3.5,1.09,7.12,2.22,10.82,2.56c3.06,0.28,5.46-0.02,7.53-0.94c1.5-0.66,2.56-1.58,3.23-2.81c0.01-0.02,0.02-0.04,0.03-0.07
			c-0.01,0-0.03,0-0.04,0c-0.54,0.13-1.13,0.3-1.72,0.53c-0.46,0.17-0.91,0.36-1.37,0.55c-0.77,0.32-1.56,0.66-2.39,0.92
			c-1.15,0.36-2.41,0.65-3.75,0.33l-0.55-0.12l0.15-0.54c0.03-0.09,0.05-0.18,0.07-0.26c0.04-0.2,0.1-0.4,0.19-0.59
			c0.3-0.68,0.6-1.37,0.89-2.06c0.68-1.6,1.39-3.25,2.25-4.8c2.53-4.53,5.05-9.47,6.28-14.97l0.12-0.53
			c0.4-1.76,0.82-3.59,0.88-5.37c0.07-1.82-0.06-3.36-0.4-4.71l-0.41,2.3c-0.11,0.58-0.21,1.16-0.31,1.75
			c-0.79,4.49-1.62,8.88-3.16,13.11c-2.02,5.53-4.57,10.11-7.82,14.01c-0.89,1.07-1.8,1.67-2.88,1.89
			c-0.33,0.07-0.68,0.13-1.03,0.06c-0.83-0.14-1.66-0.31-2.54-0.48l-2.05-0.4l0.74-0.71c0.41-0.39,0.8-0.76,1.19-1.12
			c0.8-0.74,1.55-1.43,2.25-2.17c2.76-2.93,5.13-6.46,7.22-10.8c2.18-4.52,4.28-9.04,6.31-13.4c0.18-0.39,0.34-0.78,0.5-1.19
			c0.22-0.55,0.44-1.12,0.73-1.67l1.04-2c-0.1-0.3-0.21-0.58-0.33-0.85c-0.07-0.15-0.11-0.25-0.15-0.31
			c-0.03,0.03-0.07,0.07-0.12,0.12c-0.7,0.78-1.42,1.61-1.81,2.5c-1.1,2.5-2.18,5.06-3.22,7.54c-0.95,2.25-1.89,4.5-2.87,6.74
			c-1.78,4.09-3.83,8.41-6.73,12.29c-1,1.34-2.25,2.49-3.46,3.6c-0.79,0.72-1.8,0.97-2.87,0.69l-0.73-0.19l0.88-1.31
			c1.56-2.31,2.11-4.62,1.69-7.07c-0.39-2.23-1.32-4.3-2.78-6.19c-2.14-2.75-4.41-5.41-6.35-7.64c-0.42-0.49-0.86-0.98-1.28-1.46
			c-1.8-2.04-3.67-4.15-5.13-6.55c-1.17-1.91-1.77-3.59-1.91-5.27c-0.17-2.15,0.54-4.21,2.12-6.13c2.5-3.04,5.92-4.81,10.46-5.4
			c3.48-0.46,7.28-0.32,11.63,0.4c5.73,0.95,11.51,2,16.4,2.91c6.27,1.16,13.58,2.39,20.93,2.32c3.12-0.03,5.6-0.32,7.81-0.9
			c4.51-1.19,8.46-3.6,12.06-7.37c0.49-0.51,0.33-0.8,0.09-1.04c-0.23-0.22-0.48-0.4-1,0.06c-3.75,3.39-8.3,5.43-13.54,6.07
			c-2.4,0.3-4.85,0.39-7.22,0.49l-0.67,0.02c-3.57,0.15-6.72-0.07-9.63-0.67c-3.57-0.73-7.14-1.49-10.71-2.24l-5.25-1.1
			c-5.21-1.09-10.83-2.1-16.51-2.01c-1.03,0.02-2.01,0.07-2.93,0.17c-3.31,0.33-6.01,1.16-8.36,2.54
			c-4.43,2.61-6.83,6.06-7.34,10.54c-0.37,3.25,0.38,5.88,2.29,8.03c0.93,1.06,1.82,2.17,2.68,3.26l0.41,0.52
			c0.65,0.83,1.03,1.78,1.16,2.91c0.44,4.02,0.48,7.55,0.14,10.77c-0.21,1.92-0.58,4.17-1.73,6.26c-0.92,1.68-2.09,2.62-3.58,2.88
			c-1.59,0.27-2.78,1.1-3.66,2.53c-0.77,1.26-1.23,2.74-1.5,4.78c-0.75,5.68-0.03,11.35,0.84,17.13c0.46,3.05,1.06,6.14,1.65,9.13
			c0.2,1,0.39,2,0.59,3.01l0.23,1.19c0.49,2.57,0.99,5.23,1.58,7.81c0.69,3.06,0.88,6.38,0.57,10.14c-0.34,4.2-1.21,8.36-2.04,12.39
			c-0.28,1.33-0.56,2.66-0.81,3.99c-0.14,0.71-0.29,1.43-0.44,2.14c-0.58,2.89-1.2,5.88-1.28,8.87l-0.01,0.21
			c-0.04,1.13-0.02,1.9,0.59,2.35c0.89,0.65,1.02,1.41,1.08,2.2c0.01,0.1,0.02,0.21,0.04,0.3c0,0,0,0,0.01,0.01
			c0.12-0.09,0.23-0.24,0.36-0.45c1.28-2.15,2.16-4.37,2.58-6.59c1.17-6.1,2.32-12.32,3.44-18.32l0.32-1.69
			c0.09-0.5,0.26-1.43,1.44-1.5c0-0.01,0.1-0.1,0.17-0.2c0.26-0.41,0.55-0.9,0.72-1.39c0.7-1.98,1.37-3.97,2.05-5.95
			c0.96-2.77,1.92-5.56,2.9-8.32c1.83-5.18,3.95-10.67,7.06-15.79c3.12-5.16,6.63-8.95,10.73-11.57c1.46-0.93,3.1-1.98,4.86-2.38
			c3.42-0.77,6.97-1.56,10.35-2.98c5.87-2.45,11.19-6.11,15.81-10.88c3.75-3.86,6.74-8.47,9.16-14.08c1.32-3.07,2.59-6.22,3.82-9.28
			c0.6-1.47,1.2-2.96,1.8-4.44c1.6-3.91,3.64-8.47,6.66-12.57c1.33-1.8,2.76-3.56,4.14-5.26c1.03-1.27,2.09-2.57,3.1-3.89
			c0.44-0.57,0.72-1.26,1.04-2l0.24-0.58C314.83,204.06,314.82,204.06,314.81,204.06z M237.51,256.47l-1.97-0.45
			c-1.32-0.3-2.65-0.61-3.98-0.9c-0.48-0.1-0.97-0.16-1.47-0.22c-0.01,0-0.03,0-0.04,0c1.94-4.68,2.72-9.77,2.39-15.48
			c0.06,0.05,0.12,0.11,0.17,0.16c2.02,1.98,3.67,3.66,4.99,5.72c1.01,1.57,1.58,3.11,1.77,4.72c0.12,1.01-0.01,2.01-0.4,3.06
			c-0.14,0.39-0.29,0.77-0.43,1.16c-0.28,0.74-0.56,1.48-0.84,2.28C237.62,256.5,237.57,256.49,237.51,256.47z M223.94,258.9
			c0.01,0.01,0.04,0,0.06,0.01c2.81,0.47,5.67,1.58,9,3.51c1.48,0.86,2.95,1.73,4.42,2.6c1.69,1,3.38,2,5.09,2.98
			c2.06,1.18,4.19,2.06,6.47,2.67c-0.11,0.08-0.22,0.16-0.33,0.25c-3.4,2.56-6.36,5.87-9.29,10.41c-3.92,6.06-6.35,12.67-8.04,17.74
			c-0.08,0.25-0.16,0.5-0.24,0.75c-0.58-2.26-1.64-4.32-3.22-6.28c-0.96-1.19-1.31-2.71-1.53-4.04c-0.27-1.6-0.5-3.24-0.71-4.84
			c-0.1-0.75-0.21-1.49-0.31-2.24c-0.1-0.69-0.21-1.38-0.32-2.08c-0.24-1.45-0.48-2.95-0.58-4.42c-0.2-2.91-0.27-5.88-0.36-8.76
			l-0.05-1.74c-0.03-1.11-0.04-2.23-0.04-3.34c0-1.04-0.01-2.08-0.03-3.12C223.94,258.94,223.94,258.92,223.94,258.9z"/>
		<g>
			<path style="fill:#701E25;" d="M351.59,318.93c-27.71,9.83-50.61,10.62-69.4,5.54c-0.42-0.11-0.84-0.22-1.26-0.35
				c-16.34-4.68-29.54-13.83-40.08-25.32c-0.24-0.26-0.46-0.51-0.46-0.51c-0.46-0.56-0.79-1.1-1.02-1.57
				c-0.49,1.23-0.97,2.49-1.43,3.78c-1.29,3.57-2.35,7.02-3.23,10.32c0.17,0.14,0.34,0.27,0.52,0.4c0.17,0.13,0.35,0.26,0.53,0.39
				c13.21,9.81,28.52,15.85,45.18,18.2c0.42,0.06,0.84,0.12,1.27,0.17c21.45,2.78,45.1-0.5,69.38-9.72
				c0.88-0.33,1.77-0.67,2.65-1.02v-1.26C353.35,318.31,352.47,318.63,351.59,318.93z M220.27,290.29
				c-0.98-4.65-1.92-9.14-2.35-14.87c-0.24-3.23-0.38-7.64,0.06-12.94c-0.2-0.45-0.35-0.83-0.46-1.08c-0.15-0.36-0.2-0.53-0.43-1.04
				c-0.12-0.27-0.23-0.54-0.34-0.81c-14.39-35.27-31.24-48.53-47.16-51.8c30.93-2.81,53.2-20.68,53.2-44.45
				c0-33.44-35.35-47.33-61.86-47.33H94.02v1.27c16.41,0,20.2,2.52,20.2,15.15v148.96c0,12.63-3.79,15.15-20.2,15.15v1.27h60.6
				v-1.27c-16.41,0-20.2-2.52-20.2-15.15v-73.22l26.51,0.01c13.44,0,22.18,12.3,38.16,53.35c5.29,13.58,12.13,25.14,20.25,34.7
				c0.4,0.47,0.81,0.93,0.81,0.93c0.83,0.88,1.63,1.5,2.21,1.91C221.79,296.9,221.03,293.91,220.27,290.29z M134.42,206.87v-89.63
				h26.51c15.15,0,41.66,12.62,41.66,46.06c0,20.85-20.2,43.58-41.66,43.58L134.42,206.87z"/>
		</g>
		<g>
			<path style="fill:#701E25;" d="M375.58,239.53c-45.95,0-93.12,34.17-94.65,84.59c-0.02,0.83-0.03,1.67-0.03,2.51
				c0,1.07,0.01,2.13,0.04,3.18c1.13,44.93,26.32,70.76,60.55,79.91v-1.2c-32.95-8.77-58.09-33.95-59.28-78.54
				c-0.04-1.1-0.05-2.22-0.05-3.35c0-0.72,0.01-1.44,0.03-2.16c1.3-48.14,46.12-83.68,93.39-83.68c75.75,0,89.63,59.33,89.63,109.83
				c0,60.6-25.25,109.83-73.22,109.83h-20.2V296.34c0-12.63,3.79-15.16,20.2-15.16v-1.26h-60.6v1.26c16.41,0,20.2,2.53,20.2,15.16
				V445.3c0,12.63-3.79,15.15-20.2,15.15v1.26h60.6c63.12,0,94.68-56.81,94.68-111.09C486.67,305.17,455.11,239.53,375.58,239.53z"
				/>
		</g>
	</g>
	<g>
	</g>
	<g>
	</g>
	<g>
	</g>
	<g>
	</g>
	<g>
	</g>
	<g>
	</g>
</g>
</svg>
