<?xml version="1.0" encoding="utf-8"?><svg id="Layer_2" xmlns="http://www.w3.org/2000/svg" viewBox="0 0 645.9 510.31"><defs><style>.cls-1{font-size:24px;}.cls-1,.cls-2,.cls-3,.cls-4,.cls-5,.cls-6{fill:#231f20;}.cls-1,.cls-2,.cls-3,.cls-4,.cls-6{font-family:NomarkRegular, Nomark;}.cls-7{fill:none;stroke:#231f20;stroke-width:3px;}.cls-7,.cls-5{stroke-miterlimit:10;}.cls-2{font-size:36px;}.cls-3{font-size:18px;}.cls-4{font-size:222.58px;}.cls-5{stroke:#fff;stroke-width:1.5px;}.cls-6{font-size:21px;}</style></defs><text class="cls-4" transform="translate(225.59 264.6)"><tspan x="0" y="0">R</tspan></text><text class="cls-4" transform="translate(391.07 416.08)"><tspan x="0" y="0">D</tspan></text><path class="cls-5" d="m367.27,209.21c5.24,3.41,10.47,6.94,15.84,10.27,4.83,2.99,9.98,5.26,15.73,5.8,4.19.39,8.32-.11,12.39-1.04,13.55-3.1,24.71-10.11,33.46-20.89,3.72-4.58,6.71-9.66,9.56-14.82,3.47-6.28,6.85-12.63,10.52-18.79,4.34-7.3,9.76-13.7,16.88-18.5,1.02-.69,2.08-1.32,3.15-1.93.28-.16.68-.1,1.03-.14,0,.35.15.77,0,1.03-.66,1.17-1.24,2.44-2.14,3.4-3.51,3.72-7.24,7.23-10.67,11.02-4.17,4.62-7.36,9.95-10.27,15.44-3.05,5.74-6,11.54-9.15,17.22-3.66,6.6-8.19,12.53-13.99,17.42-6.63,5.6-14.05,9.76-22.36,12.3-4.58,1.4-9.31,1.99-14.06,2.57-2.21.27-4.4,1.37-6.44,2.4-6.26,3.17-11.14,7.96-15.32,13.53-4.56,6.08-8.01,12.79-11.23,19.62-2.82,5.99-5.55,12.03-8.35,18.03-.31.66-.75,1.27-1.2,1.85-.19.25-.56.53-.83.52-.94-.04-1.16.54-1.38,1.27-2.5,8.57-4.99,17.15-7.54,25.71-.92,3.1-2.43,5.92-4.35,8.51-.2.27-.44.54-.71.71-.54.35-.94.2-1.07-.46-.04-.18-.04-.37-.03-.55.02-.94-.03-1.71-.9-2.49-1.14-1.02-.84-2.63-.65-4.03.64-4.92,2.3-9.57,3.71-14.29,2.08-6.96,4.54-13.82,5.86-20.99.8-4.35,1.12-8.71.58-13.14-.49-4-.83-8.03-1.18-12.05-.48-5.4-1.06-10.79-1.34-16.2-.38-7.6-.61-15.22,1.15-22.73.53-2.26,1.3-4.44,2.72-6.32,1.41-1.87,3.24-2.95,5.63-3.11,2.04-.14,3.44-1.39,4.54-3,1.6-2.33,2.4-5,2.97-7.71.97-4.6,1.26-9.27,1.22-13.97-.01-1.32-.32-2.5-1.02-3.59-1.15-1.79-2.28-3.59-3.52-5.32-2.51-3.47-2.93-7.32-2.06-11.36,1.39-6.46,5.57-10.63,11.37-13.32,4.93-2.28,10.17-2.57,15.49-2.12,7.38.62,14.47,2.59,21.5,4.81,6.81,2.15,13.62,4.34,20.44,6.46,4.02,1.25,8.17,1.86,12.36,2.11,3.44.2,6.9.44,10.34.36,6.63-.14,12.73-2.06,18.12-6.04.89-.66,1.66-.58,2.27.17.63.77.52,1.6-.34,2.33-4.97,4.26-10.58,7.19-17.1,8.23-3.49.56-7,.48-10.51.16-9.31-.84-18.3-3.21-27.24-5.81-7.01-2.04-14.02-4.05-21.07-5.95-4.89-1.32-9.87-2.17-14.97-2.02-5.28.16-10.07,1.65-13.92,5.49-2.02,2.01-3.32,4.39-3.38,7.27-.05,2.41.7,4.67,1.74,6.84,1.95,4.05,4.72,7.57,7.29,11.22,2.52,3.57,5.01,7.17,7.33,10.87,1.67,2.65,2.71,5.61,2.93,8.78.26,3.64-1,6.77-3.3,9.53-.21.25-.41.5-.69.83,1.24.46,2.34.2,3.18-.43,1.72-1.28,3.46-2.59,4.9-4.16,4.14-4.53,7.33-9.75,10.32-15.07,3.33-5.94,6.5-11.97,9.84-17.9.69-1.22,1.79-2.26,2.85-3.21.83-.75,1.13-.46,1.47.59.92,2.9.84,5.89.44,8.78-.36,2.62-1.27,5.19-2.11,7.72-2.3,6.92-6.12,13.01-10.27,18.95-1.88,2.69-3.34,5.67-4.99,8.52-.16.29-.26.62-.41.99,1.58.54,3.11.33,4.59.02,1.71-.35,3.37-.96,5.06-1.42.8-.22,1.62-.38,2.44-.48.28-.03.69.15.85.37.11.15-.05.59-.2.82-1.22,1.77-2.94,2.86-4.96,3.52-3.41,1.12-6.87.93-10.33.26-5.3-1.03-10.21-3.22-15.15-5.3-3.74-1.58-7.5-3.13-11.38-3.99Zm-4.73,57.57c.16-.14.22-.17.24-.22.43-.99.85-1.98,1.29-2.96,3.48-7.78,7.41-15.31,12.76-22.01,3.81-4.77,8.08-9.05,13.34-12.24.53-.32,1.07-.64,1.74-1.04-3.48-1.16-6.54-2.74-9.36-4.75-3.94-2.81-7.79-5.73-11.72-8.55-3.54-2.55-7.29-4.72-11.55-5.87-.69-.19-.91-.06-.96.68-.21,2.82-.54,5.64-.74,8.46-.33,4.6-.71,9.21-.86,13.82-.09,2.88.21,5.78.33,8.67.13,3.14.19,6.28.4,9.41.13,2.03.45,4.07,1.6,5.82,2.12,3.24,3.37,6.76,3.5,10.79Zm3.91-60.97c1.04.25,1.94.4,2.81.68,2.54.83,5.07,1.7,7.61,2.55.38.13.76.44,1.05-.22.67-1.48,1.43-2.93,2.14-4.4.65-1.35,1.02-2.75,1-4.27-.04-2.4-.71-4.61-1.78-6.72-1.55-3.05-3.69-5.67-5.86-8.27-.42-.5-.86-.98-1.4-1.6-.09,7.95-1.65,15.33-5.57,22.24Zm17.9,6.37c1.65.5,3.11.96,4.58,1.37.34.1.73.07,1.09.03,1.45-.15,2.59-.91,3.6-1.9,5.04-4.96,8.87-10.78,11.93-17.12,2.56-5.32,4.23-10.96,5.81-16.63.3-1.08.62-2.17.92-3.25-.75,1.15-1.28,2.4-1.97,3.55-3.31,5.59-6.62,11.18-10.02,16.72-3.04,4.96-6.59,9.53-11.01,13.35-1.51,1.3-3.14,2.46-4.95,3.87Z"/><g><text class="cls-6" transform="translate(142.8 188.08) rotate(102.95)"><tspan x="0" y="0">R</tspan></text><text class="cls-6" transform="translate(139.68 201.96) rotate(100.07)"><tspan x="0" y="0">e</tspan></text><text class="cls-6" transform="translate(137.63 213.64) rotate(97.28)"><tspan x="0" y="0">b</tspan></text><text class="cls-6" transform="translate(136.05 226.34) rotate(94.58)"><tspan x="0" y="0">e</tspan></text><text class="cls-6" transform="translate(135.12 237.83) rotate(91.61)"><tspan x="0" y="0">c</tspan></text><text class="cls-6" transform="translate(134.54 254.22) rotate(86.73)"><tspan x="0" y="0">ca</tspan></text><text class="cls-6" transform="translate(136.48 281.24) rotate(82.64)"><tspan x="0" y="0"> </tspan></text><text class="cls-6" transform="translate(137.56 289.87) rotate(80.06)"><tspan x="0" y="0">&amp;</tspan></text><text class="cls-6" transform="translate(140.17 304.17) rotate(77.47)"><tspan x="0" y="0"> </tspan></text><text class="cls-6" transform="translate(142.03 312.7) rotate(74.84)"><tspan x="0" y="0">d</tspan></text><text class="cls-6" transform="translate(145.62 325.95) rotate(71.77)"><tspan x="0" y="0">a</tspan></text><text class="cls-6" transform="translate(150.65 341.06) rotate(68.13)"><tspan x="0" y="0">n</tspan></text><text class="cls-6" transform="translate(156.78 356) rotate(65.6)"><tspan x="0" y="0">i</tspan></text><text class="cls-6" transform="translate(159.45 361.92) rotate(63.65)"><tspan x="0" y="0">e</tspan></text><text class="cls-6" transform="translate(164.67 372.39) rotate(61.09)"><tspan x="0" y="0">l</tspan></text><text class="cls-1" transform="translate(169.34 382.92) rotate(58.78)"><tspan x="0" y="0"> </tspan></text><text class="cls-1" transform="translate(174.1 390.69) rotate(57.32)"><tspan x="0" y="0">|</tspan></text><text class="cls-1" transform="translate(176.29 394.15) rotate(55.87)"><tspan x="0" y="0"> </tspan></text><text class="cls-1" transform="translate(181.95 402.62) rotate(52.66)"><tspan x="0" y="0">N</tspan></text><text class="cls-3" transform="translate(195.42 416.6) rotate(48.7)"><tspan x="0" y="0">o</tspan></text><text class="cls-3" transform="translate(204.9 427.34) rotate(45.77)"><tspan x="0" y="0">v</tspan></text><text class="cls-1" transform="translate(212.41 437.94) rotate(43.98)"><tspan x="0" y="0">.</tspan></text><text class="cls-1" transform="translate(214.59 440.08) rotate(42.64)"><tspan x="0" y="0"> </tspan></text><text class="cls-1" transform="translate(221.55 446.44) rotate(40.68)"><tspan x="0" y="0">1</tspan></text><text class="cls-1" transform="translate(227.33 451.47) rotate(38.38)"><tspan x="0" y="0">0</tspan></text><text class="cls-1" transform="translate(238.07 459.84) rotate(36.48)"><tspan x="0" y="0">,</tspan></text><text class="cls-1" transform="translate(240.51 461.68) rotate(35.14)"><tspan x="0" y="0"> </tspan></text><text class="cls-1" transform="translate(248.5 467.3) rotate(32.62)"><tspan x="0" y="0">2</tspan></text><text class="cls-1" transform="translate(259.63 474.39) rotate(29.56)"><tspan x="0" y="0">0</tspan></text><text class="cls-1" transform="translate(271.56 481.1) rotate(26.65)"><tspan x="0" y="0">2</tspan></text><text class="cls-1" transform="translate(282.25 486.46) rotate(23.97)"><tspan x="0" y="0">4</tspan></text><text class="cls-2" transform="translate(293.11 495.83) rotate(20.93)"><tspan x="0" y="0"> </tspan></text><path class="cls-7" d="m305.39,487.17c2.47.96,5.29,1.96,8.42,3.01,131.34,44.02,273.5-26.76,317.52-158.1,44.02-131.34-26.76-273.5-158.1-317.52-2.84-.95-5.68-1.83-8.53-2.67C335.79-26.36,198.78,44.15,155.71,172.66"/></g></svg>