<?xml version="1.0" encoding="utf-8"?>
<!-- Generator: Adobe Illustrator 27.2.0, SVG Export Plug-In . SVG Version: 6.00 Build 0)  -->
<svg version="1.1" id="Layer_1" xmlns="http://www.w3.org/2000/svg" xmlns:xlink="http://www.w3.org/1999/xlink" x="0px" y="0px"
	 viewBox="0 0 360 360" style="enable-background:new 0 0 360 360;" xml:space="preserve">
<style type="text/css">
	.st0{fill:#7F2122;}
	.st1{fill-rule:evenodd;clip-rule:evenodd;fill:#444444;}
	.st2{fill:none;}
</style>
<g>
	<rect x="155.18" y="16.32" class="st0" width="49.63" height="49.63"/>
	<g>
		<g>
			<path class="st1" d="M118.54,50.67l12.3,30.56h98.83l12.29-30.27L118.54,50.67z"/>
			<path class="st1" d="M103.72,207.16c0,0,59.92,38.06,59.92,136.52c2.27,0.01,4.65,0,7.02,0v-157.3c-3.29-1.2-6.41-3.03-9.05-5.67
				c-9.63-9.63-9.63-25.25,0-34.88c9.63-9.63,25.25-9.63,34.88,0c9.63,9.63,9.63,25.25,0,34.88c-2.73,2.73-5.98,4.6-9.42,5.79
				l0.02,157.18c3.12,0,5.51,0,9.05,0c0.01-98.8,60.13-136.68,60.13-136.68l-38.32-102.46h-76.63L103.72,207.16L103.72,207.16z"/>
		</g>
	</g>
	<line class="st2" x1="233.57" y1="193.95" x2="126.43" y2="301.09"/>
</g>
</svg>
