<?xml version="1.0" encoding="utf-8"?>
<!-- Generator: Adobe Illustrator 27.2.0, SVG Export Plug-In . SVG Version: 6.00 Build 0)  -->
<svg version="1.1" id="Layer_1" xmlns="http://www.w3.org/2000/svg" xmlns:xlink="http://www.w3.org/1999/xlink" x="0px" y="0px"
	 viewBox="0 0 487.22 127.87" style="enable-background:new 0 0 487.22 127.87;" xml:space="preserve">
<g>
	<g>
		<path style="fill:#321115;" d="M37.01,9c0.23-0.34,0.29-0.57,0.29-0.74c0-0.34-0.23-0.52-0.23-0.8c0-0.17,0.06-0.34,0.34-0.69
			c0.86-1.15,4.41-5.84,5.39-6.42C43.14,0.11,43.49,0,43.83,0c0.92,0,1.66,0.74,1.66,1.83v0.29c-0.06,0.57-0.34,1.09-0.69,1.6
			c-1.15,1.78-2.29,3.55-3.38,5.39c-5.84,9.28-11.06,18.97-15.81,28.82c-0.11,0.17-0.23,0.34-0.23,0.57c0,0.06,0.06,0.11,0.06,0.23
			c6.07-8.14,10.89-14.15,18.51-21.03C47.79,14.15,58.33,5.04,64.4,4.98h0.11c3.84,0,5.96,3.5,6.3,6.99
			c0.06,0.52,0.06,1.09,0.06,1.6c0,5.62-2.81,12.15-5.67,16.56c-7.22,11-16.62,19.71-28.42,25.67c-6.65,3.38-13.64,5.27-21.09,5.5
			c-0.29,0-0.57,0-0.86,0.17c-0.23,0.23-0.29,0.46-0.29,0.63c0,0.29,0.11,0.57,0.46,0.74c8.71,5.73,21.95,14.61,32.32,16.67
			c1.72,0.34,3.44,0.57,5.16,0.57c0.75,0,1.49-0.06,2.23-0.11c0.23,0,0.57-0.06,0.86-0.06c0.4,0,0.74,0.06,0.8,0.46v0.12
			c0,0.63-1.2,0.63-2.06,0.69c-0.8,0.06-1.6,0.11-2.35,0.11c-4.3,0-8.48-1.03-12.55-2.58c-7.16-2.75-13.92-6.42-20.46-10.49
			l-4.81-3.09c-0.29-0.17-0.52-0.29-0.63-0.29c-0.17,0-0.23,0.17-0.46,0.63c-2.64,6.25-5.21,12.49-7.28,18.91
			c-0.11,0.34-0.29,0.63-0.29,0.92c0,0.23,0.06,0.46,0.34,0.69c0.06,0.06,0.11,0.11,0.11,0.23c0,0.52-0.8,1.72-1.43,1.72
			c-0.06,0-0.11-0.06-0.17-0.06c-0.4-0.17-0.52-0.52-0.52-0.97c0-0.46,0.11-0.92,0.17-1.26c1.15-4.93,5.44-16.27,7.28-21.08
			c0.11-0.4,0.23-0.63,0.23-0.8c0-0.23-0.23-0.4-0.69-0.69c-2.01-1.2-4.53-2.87-6.7-3.61c-1.03-0.34-3.27-1.2-3.9-2.18
			C0.06,57.07,0,56.72,0,56.44c0-0.74,0.4-1.43,1.37-1.43c0.52,0,1.26,0.23,2.18,0.92c2.64,1.89,5.67,2.58,8.82,2.81
			c0.29,0,0.46,0.06,0.63,0.06c0.52,0,0.57-0.23,0.92-0.97C19.65,43.03,28.76,22.29,37.01,9z M22.06,45.84
			c-0.92,1.37-4.64,9.91-5.56,11.86c-0.11,0.29-0.29,0.52-0.29,0.86v0.17c0.29,0.06,0.57,0.06,0.86,0.06c0.4,0,0.8,0,1.26-0.06
			c6.07-0.52,11.86-2.06,17.3-4.76c11.69-5.79,20.86-14.32,28.02-25.15c2.41-3.78,4.13-7.85,4.93-12.32
			c0.23-1.09,0.34-2.18,0.34-3.27c0-1.03-0.11-2.06-0.46-3.09c-0.92-2.58-2.46-3.49-4.18-3.49c-2.35,0-4.98,1.55-7.05,2.81
			C43.6,17.88,30.71,32.72,22.06,45.84z"/>
		<path style="fill:#321115;" d="M62.33,65.72c-2.98,0-4.18-2.23-4.18-4.53c0-0.92,0.17-1.83,0.52-2.64
			c1.66-4.07,4.58-6.99,8.71-8.71c0.57-0.29,1.09-0.34,1.55-0.34c1.2,0,1.83,0.86,1.83,1.83c0,0.57-0.17,1.15-0.52,1.6
			c-0.57,0.8-1.15,1.66-1.95,2.18c-1.6,1.09-3.38,2.06-5.1,3.04c-0.52,0.29-1.09,0.46-1.66,0.46c-0.34,0-0.69-0.06-1.09-0.17
			c-0.69,1.03-0.97,2.06-0.97,2.98c0,1.83,1.32,3.09,3.67,3.09c0.63,0,1.26-0.06,1.95-0.23c5.62-1.37,14.78-6.36,19.19-9.74
			c0.11-0.11,0.23-0.17,0.34-0.17c0.06,0,0.11,0.06,0.11,0.17c0,0.06-0.06,0.17-0.23,0.34c-4.13,3.61-15.93,10.54-21.83,10.83H62.33
			z M61.42,56.84c2.46-0.75,6.13-3.67,6.42-5.1C65.08,52.6,63.25,54.55,61.42,56.84z"/>
		<path style="fill:#321115;" d="M80.67,67.78c-0.57,0-0.97-0.52-0.97-1.15c0-0.23,0-0.46,0.11-0.69c1.2-3.38,2.46-6.76,3.78-10.08
			c3.61-8.77,8.25-16.85,14.67-23.89c1.78-1.89,4.81-4.81,7.39-5.5c0.23-0.06,0.4-0.06,0.63-0.06c1.15,0,1.78,0.92,1.78,2.06
			c0,0.46-0.06,0.97-0.29,1.43c-0.29,0.74-0.69,1.49-1.15,2.18c-4.81,7.91-10.71,14.95-17.48,21.2c-1.72,1.55-2.92,3.21-3.72,5.33
			c-0.29,0.8-0.63,1.55-0.75,2.46l6.3-5.73c1.03-0.86,2.92-2.01,4.53-2.01c0.57,0,1.09,0.17,1.55,0.52c1.6,1.38,0.92,3.15,1.32,3.15
			h0.11c4.7-1.72,8.42-2.23,13.29-2.58c0.4-0.06,0.69-0.06,0.92-0.06c0.11,0,0.17,0.06,0.17,0.17c0,0.06-0.06,0.11-0.17,0.11
			c-1.66,0.23-2.58,0.29-4.13,0.52c-3.21,0.52-6.19,1.15-9.34,2.52c-0.74,0.34-1.2,0.69-1.43,1.55c-2.06,7.1-5.61,11.06-10.49,16.04
			c-0.52,0.57-1.26,1.03-1.95,1.37c-0.46,0.29-0.97,0.4-1.49,0.4c-1.32,0-2.46-0.97-2.46-2.75c0-1.37,0.69-3.21,2.52-5.44
			c4.58-5.5,7.1-7.51,12.43-11c0.23-0.17,0.34-0.17,0.34-0.4c0.06-0.29,0.06-0.69,0.06-1.03v-0.4c-0.17-0.92-0.69-1.55-1.43-1.55
			c-0.29,0-0.57,0.06-0.86,0.23c-4.99,2.29-9.34,8.02-12.61,12.32C81.47,67.55,81.07,67.78,80.67,67.78z M96.42,59.13
			c0,0-0.06-0.06-0.11-0.06c-0.17,0-0.69,0.4-0.92,0.57c-4.07,2.64-7.56,5.9-10.37,9.8c-1.55,2.12-2.23,3.84-2.23,4.93
			c0,0.74,0.34,1.15,0.92,1.15c0.63,0,1.6-0.46,2.75-1.55c3.95-3.72,7.11-7.96,9.34-12.95c0.23-0.57,0.4-1.15,0.57-1.72
			C96.37,59.25,96.42,59.19,96.42,59.13z M88.69,52.26c0.17-0.11,0.34-0.23,0.46-0.4c6.25-6.48,12.72-13.75,16.9-21.83
			c0.23-0.46,0.29-1.03,0.46-1.55c-0.11-0.06-0.23-0.11-0.29-0.17c-0.4,0.23-0.86,0.4-1.2,0.69c-0.92,0.74-1.89,1.49-2.69,2.35
			C96.71,37.59,92.18,44.58,88.69,52.26z"/>
		<path style="fill:#321115;" d="M113.95,65.72c-2.98,0-4.18-2.23-4.18-4.53c0-0.92,0.17-1.83,0.52-2.64
			c1.66-4.07,4.58-6.99,8.71-8.71c0.57-0.29,1.09-0.34,1.55-0.34c1.2,0,1.83,0.86,1.83,1.83c0,0.57-0.17,1.15-0.52,1.6
			c-0.57,0.8-1.15,1.66-1.95,2.18c-1.6,1.09-3.38,2.06-5.1,3.04c-0.52,0.29-1.09,0.46-1.66,0.46c-0.34,0-0.69-0.06-1.09-0.17
			c-0.69,1.03-0.97,2.06-0.97,2.98c0,1.83,1.32,3.09,3.67,3.09c0.63,0,1.26-0.06,1.95-0.23c5.62-1.37,14.78-6.36,19.19-9.74
			c0.11-0.11,0.23-0.17,0.34-0.17c0.06,0,0.11,0.06,0.11,0.17c0,0.06-0.06,0.17-0.23,0.34C132,58.5,120.2,65.43,114.3,65.72H113.95z
			 M113.04,56.84c2.46-0.75,6.13-3.67,6.42-5.1C116.7,52.6,114.87,54.55,113.04,56.84z"/>
		<path style="fill:#321115;" d="M137.33,67.61c-2.52,0-4.24-1.49-4.41-4.18V62.8c0-4.58,3.32-9.45,6.19-12.66
			c1.55-1.78,2.92-2.41,4.01-2.41c1.66,0,2.64,1.43,2.64,2.92c0,0.8-0.29,1.66-0.92,2.23c-0.23,0.23-0.46,0.29-0.69,0.29
			c-0.34,0-0.63-0.23-0.74-0.69c-0.17-0.57-0.23-1.09-0.4-1.83c-0.4,0.23-0.8,0.34-1.03,0.57c-2.92,2.46-6.99,8.31-7.16,12.26v0.29
			c0,1.95,1.37,2.69,2.98,2.69c0.75,0,1.43-0.12,2.18-0.34c5.62-1.83,13.01-7.96,17.48-11.63c0.06-0.06,0.17-0.11,0.23-0.11
			c0.06,0,0.11,0.06,0.11,0.17c0,0.06,0,0.11-0.11,0.23c-3.95,4.13-12.2,10.6-17.7,12.38C138.99,67.44,138.13,67.61,137.33,67.61z"
			/>
		<path style="fill:#321115;" d="M158.76,67.61c-2.52,0-4.24-1.49-4.41-4.18V62.8c0-4.58,3.32-9.45,6.19-12.66
			c1.55-1.78,2.92-2.41,4.01-2.41c1.66,0,2.64,1.43,2.64,2.92c0,0.8-0.29,1.66-0.92,2.23c-0.23,0.23-0.46,0.29-0.69,0.29
			c-0.34,0-0.63-0.23-0.74-0.69c-0.17-0.57-0.23-1.09-0.4-1.83c-0.4,0.23-0.8,0.34-1.03,0.57c-2.92,2.46-6.99,8.31-7.16,12.26v0.29
			c0,1.95,1.37,2.69,2.98,2.69c0.75,0,1.43-0.12,2.18-0.34c5.62-1.83,13.01-7.96,17.48-11.63c0.06-0.06,0.17-0.11,0.23-0.11
			c0.06,0,0.11,0.06,0.11,0.17c0,0.06,0,0.11-0.11,0.23c-3.95,4.13-12.2,10.6-17.7,12.38C160.42,67.44,159.56,67.61,158.76,67.61z"
			/>
		<path style="fill:#321115;" d="M177.44,61.14c-0.69,0-1.43-0.52-1.43-1.32c0-0.17,0.06-0.34,0.11-0.52
			c0.23-0.69,0.46-1.32,0.74-2.01c0.92-1.89,2.23-3.55,3.84-4.98c0.92-0.8,2.12-1.2,3.21-1.2c1.32,0,2.58,0.57,3.15,1.55
			c0.06,0.06,0.06,0.06,0.11,0.06c0.23,0,0.52-0.34,0.8-0.4c0.06,0,0.17-0.06,0.23-0.06c0.46,0,0.69,0.52,0.69,1.03
			c0,0.17,0,0.34-0.06,0.46c-0.4,1.26-2.86,5.44-2.86,7.79c0,0.92,0.4,1.55,1.49,1.55h0.06c7.79,0,17.82-8.31,18.68-8.65h0.06
			c0.06,0,0.06,0,0.06,0.06c0,0,0,0.06-0.06,0.11c-3.61,3.67-13.29,9.22-18.39,9.45h-0.34c-2.23,0-2.98-1.38-2.98-3.04
			c0-1.55,0.57-3.32,1.2-4.58c-2.01,1.32-5.9,4.01-7.85,4.64C177.72,61.14,177.61,61.14,177.44,61.14z M179.21,58.21
			c0,0.17,0.06,0.23,0.11,0.23c0.06,0,0.17-0.06,0.29-0.11c2.35-1.43,3.67-2.23,5.67-4.18c-0.34-0.57-0.8-0.8-1.26-0.8
			c-0.23,0-0.52,0.06-0.8,0.23c-1.26,0.63-3.09,2.64-3.72,3.78C179.44,57.41,179.21,57.93,179.21,58.21z"/>
		<path style="fill:#321115;" d="M238.91,69.1c0-0.23,0.06-0.52,0.17-0.86c0.92-3.15,1.83-6.65,1.83-9.45
			c0-2.06-0.46-3.78-1.78-4.81c-0.11-0.06-0.29-0.11-0.57-0.11h-0.23c-0.23,0.06-0.52,0.06-0.8,0.06c-1.37,0-3.55-0.23-5.56-0.23
			h-1.26c-2.29,0-3.32-0.46-3.32-0.97c0-0.06,0-0.17,0.06-0.23c0.29-0.57,1.72-1.15,4.13-1.15h0.34c2.69,0,5.5,0.52,7.22,1.32
			c2.35-0.29,3.9-0.4,6.36-0.8c2.29-5.04,4.81-9.8,6.88-13.24c0.17-0.29,0.4-0.4,0.63-0.4c0.46,0,0.92,0.34,0.92,0.86
			c0,0.11-0.06,0.23-0.11,0.4c-1.89,3.15-4.58,7.68-6.7,12.32c6.82-0.92,12.55-1.78,16.96-1.78c4.53,0,7.74,0.86,9.63,3.21
			c0.17,0.17,0.23,0.4,0.23,0.57c0,0.29-0.17,0.57-0.34,0.74c-0.17,0.11-0.34,0.17-0.57,0.17c-0.34,0-0.74-0.17-0.97-0.4
			c-0.46-0.63-0.57-1.38-1.55-1.72c-2.46-0.92-5.27-1.32-8.54-1.32c-4.07,0-8.94,0.57-14.96,1.55c-0.29,0.06-0.51,0.17-0.74,0.69
			c-2.01,4.58-4.01,9.45-5.67,15.41c-0.23,0.69-0.46,1.15-0.86,1.15C239.37,70.08,238.91,69.85,238.91,69.1z M241.6,58.79
			c0,0.69-0.06,1.37-0.12,2.06c0,0.12,0.06,0.23,0.06,0.23c0.06,0,0.17-0.11,0.23-0.23c1.03-2.01,1.95-4.81,2.98-7.1
			c0.06-0.11,0.06-0.29,0.06-0.34c0-0.17-0.06-0.23-0.23-0.23h-0.11c-1.2,0.06-2.92,0.29-4.18,0.4c-0.11,0-0.23,0.06-0.23,0.17
			c0,0.06,0,0.06,0.06,0.11C241.2,54.83,241.6,56.78,241.6,58.79z"/>
		<path style="fill:#321115;" d="M347.77,3.78c5.9,0,13.12,4.01,15.53,10.94c1.09,2.98,1.6,6.07,1.83,9.22
			c0.06,1.03,0.11,2.06,0.11,3.09c0,7.22-1.89,13.98-5.16,20.57c-5.04,10.08-11.92,18.74-20.23,26.3
			c-8.42,7.62-16.73,13.35-28.25,15.24c-0.92,0.17-1.83,0.23-2.75,0.23c-1.83,0-3.61-0.29-5.33-0.86c-3.72-1.2-6.13-3.72-7.1-7.51
			c-0.52-1.89-0.74-3.72-0.74-5.56c0-2.75,0.57-5.5,1.89-8.14c5.39-10.94,13.98-17.82,24.01-24.18c0.92-0.57,1.95-0.97,2.69-1.78
			c0.63-0.74,0.97-1.89,1.43-2.86c3.84-7.79,8.19-15.3,13.46-22.17c0.57-0.74,1.43-2.01,2.29-2.01c0.17,0,0.29,0,0.46,0.11
			c0.29,0.17,0.4,0.46,0.4,0.8c0,0.92-0.8,2.18-1.2,2.86L329.78,37.3c-0.17,0.34-0.29,0.63-0.51,0.97c0.11,0.06,0.17,0.06,0.23,0.06
			c0.23,0,0.34-0.17,0.52-0.23c3.15-1.72,5.27-2.86,8.71-3.72c0.06,0,0.11-0.06,0.17-0.06c0.23,0,0.46,0.17,0.46,0.34
			c0,0.11-0.23,0.34-0.69,0.46c-3.61,1.03-6.82,2.98-10.03,4.87c-0.46,0.23-0.69,0.63-0.92,1.03c-4.13,7.45-14.61,30.25-15.7,38.79
			c-0.06,0.63-0.34,0.86-0.57,0.86c-0.29,0-0.51-0.23-0.51-0.52v-0.23c0-6.48,9.91-30.08,12.6-36.61c-0.34,0.11-0.46,0.17-0.57,0.23
			c-9.68,6.36-18.91,13.46-24.01,24.24c-1.2,2.58-1.78,5.27-1.78,8.02c0,1.15,0.11,2.29,0.29,3.44c0.97,6.3,6.13,8.77,11.63,8.77
			c1.66,0,3.27-0.23,4.87-0.63c6.93-1.72,13.24-4.64,18.79-9.11c7.51-6.07,14.32-12.72,19.77-20.74c3.9-5.73,7.05-11.8,9.17-18.39
			c1.15-3.5,1.72-7.68,1.72-11.8c0-4.07-0.57-8.08-1.72-11.52c-2.06-5.96-7.16-9.86-13.41-9.86h-0.11c-10.66,0-19.77,3.5-28.3,9.57
			c-1.95,1.43-0.34,2.23-1.95,3.09c-0.57,0.29-1.83,1.09-2.81,1.09c-0.46,0-0.86-0.17-1.09-0.63c-0.12-0.23-0.17-0.46-0.17-0.69
			c0-0.74,0.8-1.43,1.38-1.95c2.35-2.12,5.04-3.78,7.73-5.44c7.79-4.7,15.18-6.82,24.18-7.22H347.77z"/>
		<path style="fill:#321115;" d="M397.78,58.56c0-1.09,0.06-2.12,0.11-2.98c0-0.8,0.06-1.6,0.11-2.69
			c-0.63,0.52-1.09,0.74-1.43,1.09c-3.55,3.27-7.05,6.53-10.54,9.8c-1.03,0.92-2.06,2.18-3.21,2.18c-0.29,0-0.57-0.11-0.86-0.29
			c-0.29-0.17-0.4-0.4-0.4-0.63c0-0.92,1.49-2.18,1.89-3.09c1.15-3.38,3.27-6.25,4.75-9.11c0.17-0.34,1.15-1.66,1.15-2.01
			c0-0.06-0.06-0.06-0.11-0.06c-0.23,0-0.74,0.52-1.26,0.97c-4.76,4.41-11.63,11.75-17.59,12.32h-0.29c-2.29,0-3.04-1.38-3.04-3.09
			c0-1.55,0.57-3.32,1.2-4.58c-1.6,1.49-2.69,2.81-4.01,3.61c-0.29,0.17-0.63,0.23-0.92,0.23c-0.69,0-1.26-0.46-1.26-1.15v-0.29
			c0.34-2.01,2.64-5.33,2.86-5.61c1.03-1.09,2.01-1.72,2.87-1.72c0.69,0,1.32,0.4,1.78,1.2h0.06c0.23,0,1.2-1.66,1.55-1.78h0.17
			c0.52,0,0.74,0.52,0.74,1.03c0,0.17,0,0.34-0.06,0.46c-0.34,1.03-2.35,4.07-3.55,6.76c-0.34,0.74-0.46,1.43-0.46,2.06
			c0,1.37,0.75,2.23,1.83,2.23c6.3-0.06,14.21-9.51,18.22-12.72c0.57-0.46,1.09-0.8,1.49-0.8h0.11c0.4,0,0.63,0.29,0.74,0.34
			c0.11,0.11,0.17,0.29,0.17,0.46c0,0.23-0.06,0.52-0.11,0.69c-0.86,2.35-2.52,5.5-3.84,7.85c-0.23,0.46-0.4,0.92-0.4,1.55
			c2.46-2.12,8.82-7.91,10.77-9.11c0.46-0.29,0.8-0.4,1.15-0.4c0.8,0,1.32,0.69,1.37,1.83v0.23c0,1.09-0.17,2.98-0.17,4.76
			c0,2.23,0.29,4.41,1.43,5.04c0.69,0.34,1.43,0.52,2.18,0.52c5.84,0,13.06-9.22,13.75-9.22h0.06c0.06,0,0.06,0.06,0.06,0.17
			c0,0.11-0.06,0.29-0.17,0.4c-2.92,3.27-9.17,9.63-14.21,9.63c-0.86,0-1.66-0.17-2.41-0.57C398.13,63.08,397.78,60.79,397.78,58.56
			z M368.68,54.09c-0.4-0.63-0.63-0.86-0.97-0.86c-0.17,0-0.4,0.11-0.69,0.23c-0.97,0.52-2.81,3.84-2.81,4.58
			c0,0.06,0,0.11,0.06,0.11s0.11,0,0.17-0.06C365.76,57.3,366.61,55.98,368.68,54.09z"/>
		<path style="fill:#321115;" d="M416.06,66.06c-1.83,0-2.92-1.2-2.92-3.21v-0.11c0.06-3.73,2.86-8.19,5.33-10.72
			c0.8-0.8,1.38-1.09,1.83-1.09c0.57,0,0.86,0.46,0.86,0.97c0,0.17,0,0.34-0.06,0.46c-0.12,0.4-0.52,0.75-0.8,1.15
			c-1.43,2.18-2.98,4.35-4.35,6.59c-0.46,0.8-0.92,2.01-0.92,3.04c0,1.03,0.4,1.78,1.49,1.78h0.34c3.67-0.4,13.18-5.44,16.33-7.45
			c1.49-0.97,2.98-2.06,4.47-3.09c0.06-0.06,0.17-0.06,0.23-0.06c0.06,0,0.17,0,0.17,0.11c0,0.06-0.11,0.23-0.46,0.46
			c-5.62,4.07-13.58,9.57-20.57,11.06C416.69,66.01,416.34,66.06,416.06,66.06z M422.88,48.42c-0.75,0-1.15-0.57-1.15-1.2
			c0-0.74,0.57-1.55,1.83-1.55c0.4,0,0.8,0.06,1.26,0.23c0.52,0.17,0.8,0.46,0.8,0.74c0,0.57-0.69,1.2-2.18,1.66
			C423.22,48.36,423.05,48.42,422.88,48.42z"/>
		<path style="fill:#321115;" d="M439.03,65.72c-2.98,0-4.18-2.23-4.18-4.53c0-0.92,0.17-1.83,0.52-2.64
			c1.66-4.07,4.58-6.99,8.71-8.71c0.57-0.29,1.09-0.34,1.55-0.34c1.2,0,1.83,0.86,1.83,1.83c0,0.57-0.17,1.15-0.52,1.6
			c-0.57,0.8-1.15,1.66-1.95,2.18c-1.6,1.09-3.38,2.06-5.1,3.04c-0.52,0.29-1.09,0.46-1.66,0.46c-0.34,0-0.69-0.06-1.09-0.17
			c-0.69,1.03-0.97,2.06-0.97,2.98c0,1.83,1.32,3.09,3.67,3.09c0.63,0,1.26-0.06,1.95-0.23c5.61-1.37,14.78-6.36,19.19-9.74
			c0.11-0.11,0.23-0.17,0.34-0.17c0.06,0,0.11,0.06,0.11,0.17c0,0.06-0.06,0.17-0.23,0.34c-4.12,3.61-15.93,10.54-21.83,10.83
			H439.03z M438.12,56.84c2.46-0.75,6.13-3.67,6.42-5.1C441.78,52.6,439.95,54.55,438.12,56.84z"/>
		<path style="fill:#321115;" d="M461.15,75.12c-3.04-0.29-3.84-2.81-3.84-5.39c0-5.61,4.07-16.73,6.02-21.83
			c3.9-9.91,8.08-18.51,15.7-26.99c0.8-0.86,1.6-1.66,2.52-2.35c0.97-0.75,1.95-1.03,2.86-1.03c0.63,0,1.26,0.17,1.72,0.52
			c0.8,0.57,1.09,1.49,1.09,2.58c0,3.21-2.52,7.79-3.5,9.4c-3.49,6.13-11.69,17.48-19.14,22.63c-0.63,0.4-1.32,0.97-1.55,1.49
			c-1.66,4.18-3.49,9.17-4.07,15.24c0,0.23-0.06,0.46-0.06,0.75c0,1.78,0.63,3.61,2.64,3.67h0.17c6.7,0,21.2-17.13,23.21-18.85
			c0.34-0.29,0.52-0.34,0.92-0.57h0.06c0.17,0,0.29,0.11,0.29,0.29v0.06c-0.4,0.46-0.29,0.34-0.57,0.63
			c-4.01,3.44-17.36,19.77-24.06,19.77H461.15z M464.7,50.71c0,0.11,0.11,0.23,0.23,0.23c0.11,0,0.23-0.06,0.29-0.11
			c7.16-5.33,12.95-13.52,17.42-21.43c0.63-1.15,3.27-5.96,3.27-8.48c0-0.69-0.17-1.2-0.69-1.43c-0.11-0.06-0.23-0.06-0.4-0.06
			c-0.57,0-1.32,0.34-2.18,1.2c-0.86,0.92-1.66,1.83-2.46,2.81c-6.07,7.28-10.37,16.39-14.5,24.98c-0.23,0.46-0.8,1.72-0.97,2.18
			V50.71z"/>
	</g>
	<g>
		<path style="fill:#321115;" d="M438.34,116.88c0,0.81-0.63,1.62-1.53,1.62c-0.18,0-0.36-0.09-0.63-0.18
			c-17.2-7.93-52.43-13.69-94.67-15.58c-8.11-0.36-16.48-0.54-24.95-0.54c-15.58,0-31.71,0.45-48.28,0.9
			c-87.37,2.07-180.61,11.62-213.03,22.25c-1.26,0.36-2.7,1.89-3.78,2.34c-0.36,0.09-0.81,0.18-1.35,0.18
			c-0.72,0-1.44-0.18-1.89-0.63c-0.09-0.09-0.09-0.18-0.09-0.27c0-1.08,3.24-3.51,4.14-3.87c1.8-0.72,1.08-0.27,3.42-0.9
			c35.22-10.09,126.29-18.65,211.32-20.72c11.8-0.27,23.6-0.45,35.04-0.45c59.9,0,112.69,4.14,135.39,14.59
			C438.07,115.89,438.34,116.43,438.34,116.88z"/>
	</g>
</g>
<g>
</g>
<g>
</g>
<g>
</g>
<g>
</g>
<g>
</g>
<g>
</g>
</svg>
